#N canvas -8 -8 1920 997 10;
#X msg 852 188 bang, f 5;
#X obj 838 417 osc~;
#X obj 868 396 osc~;
#X obj 838 397 +;
#X obj 849 437 +~;
#X obj 906 302 f;
#X obj 827 208 bng 15 250 50 0 empty empty empty 17 7 0 10 -262144
-1 -1;
#X obj 849 572 dac~;
#X obj 906 413 bng 15 250 50 0 empty empty empty 17 7 0 10 -262144
-1 -1;
#X obj 929 144 bng 15 250 50 0 empty empty empty 17 7 0 10 -262144
-1 -1;
#X text 928 408 stop sound;
#X text 945 141 play sound;
#X obj 852 167 delay 100;
#X obj 850 458 *~;
#X msg 883 436 0;
#X msg 958 219 1, f 2;
#X obj 904 515 vline~;
#X obj 879 329 * 1;
#X obj 849 543 *~;
#X obj 849 477 hip~ 1;
#X obj 851 495 hip~ 1;
#X obj 849 515 hip~ 1;
#X msg 898 282 60;
#X obj 812 331 + 1;
#X msg 776 359 adddollar \$1;
#X msg 775 380 \$1;
#X msg 731 321 set;
#X obj 679 259 del 100;
#X obj 827 234 del 10;
#X msg 958 460 5 0 \, 0 1000;
#X obj 893 123 r damageBang;
#X msg 679 281 11 14 43 24;
#X obj 821 307 random 4;
#X msg 837 279 seed 100;
#X connect 0 0 6 0;
#X connect 1 0 4 0;
#X connect 2 0 4 1;
#X connect 3 0 1 0;
#X connect 4 0 13 0;
#X connect 5 0 17 0;
#X connect 6 0 29 0;
#X connect 6 0 26 0;
#X connect 6 0 27 0;
#X connect 6 0 28 0;
#X connect 8 0 14 0;
#X connect 9 0 22 0;
#X connect 9 0 12 0;
#X connect 9 0 15 0;
#X connect 12 0 0 0;
#X connect 13 0 19 0;
#X connect 14 0 13 1;
#X connect 15 0 13 1;
#X connect 16 0 18 1;
#X connect 17 0 2 0;
#X connect 17 0 3 1;
#X connect 18 0 7 0;
#X connect 18 0 7 1;
#X connect 19 0 20 0;
#X connect 20 0 21 0;
#X connect 21 0 18 0;
#X connect 22 0 5 0;
#X connect 23 0 24 0;
#X connect 24 0 25 0;
#X connect 25 0 3 0;
#X connect 26 0 25 0;
#X connect 27 0 31 0;
#X connect 28 0 32 0;
#X connect 29 0 16 0;
#X connect 30 0 9 0;
#X connect 31 0 25 0;
#X connect 32 0 23 0;
#X connect 33 0 32 0;
