#N canvas 953 50 958 988 10;
#X obj 157 314 *~;
#X obj 188 84 bng 15 250 50 0 empty empty empty 17 7 0 10 -262144 -1
-1;
#X obj 65 240 vline~;
#X obj 188 107 t b b, f 17;
#X obj 188 135 del 100;
#X msg 265 160 0;
#X obj 149 347 dac~;
#X obj 188 192 vline~;
#X obj 174 242 snapshot~;
#X obj 146 181 50;
#X obj 174 215 -~;
#X obj 289 188 metro 10;
#X msg 188 164 40 3000;
#X obj 173 289 bp~ 600 2;
#X msg 65 218 1 5 \, 0 1500 500;
#X obj 336 30 loadbang;
#X msg 336 76 \; sqr sinesum 2051 1 0 0.333 0 0.2 0 0.1429 0 0.111
0 0.09 0 0.077 0 0.067 0 0.059 0 0.053 0 0.048;
#X obj 395 30 table sqr 2051;
#X obj 174 264 tabosc4~ sqr;
#X obj 188 61 r deathBang;
#X connect 0 0 6 0;
#X connect 0 0 6 1;
#X connect 1 0 3 0;
#X connect 2 0 0 0;
#X connect 3 0 4 0;
#X connect 3 1 5 0;
#X connect 4 0 14 0;
#X connect 4 0 9 0;
#X connect 4 0 12 0;
#X connect 5 0 7 0;
#X connect 7 0 10 1;
#X connect 8 0 18 0;
#X connect 9 0 10 0;
#X connect 10 0 8 0;
#X connect 11 0 8 0;
#X connect 12 0 7 0;
#X connect 13 0 0 1;
#X connect 14 0 2 0;
#X connect 15 0 16 0;
#X connect 15 0 11 0;
#X connect 18 0 13 0;
#X connect 19 0 1 0;
