#N canvas 0 50 1920 997 10;
#X obj 150 335 noise~;
#X obj 135 358 *~;
#X obj 117 480 dac~;
#X obj 11 401 bp~ 440 80;
#X obj 125 454 *~ 2;
#X obj 89 401 bp~ 440 80;
#X obj 166 401 bp~ 440 80;
#X obj 244 401 bp~ 440 80;
#X obj 83 236 unpack 1 2 3 4 5;
#X obj 134 294 t;
#X msg 83 213 3454 5645 6433 6999 6000;
#X obj 83 107 bng 15 250 50 0 empty empty empty 17 7 0 10 -262144 -1
-1;
#X obj 489 344 noise~;
#X obj 474 367 *~;
#X obj 447 537 dac~;
#X obj 350 410 bp~ 440 80;
#X obj 428 410 bp~ 440 80;
#X obj 505 410 bp~ 440 80;
#X obj 583 410 bp~ 440 80;
#X obj 422 245 unpack 1 2 3 4 5;
#X obj 473 303 t;
#X obj 422 198 metro;
#X obj 134 316 ead~ 0 5000;
#X obj 450 156 random 200;
#X obj 450 177 + 100;
#X obj 465 463 *~ 4;
#X obj 437 498 *~;
#X msg 422 220 2312 2466 3200 5314 6000;
#X obj 473 325 ead~ 50 50;
#X obj 255 135 metro 200;
#X connect 0 0 1 1;
#X connect 1 0 3 0;
#X connect 1 0 5 0;
#X connect 1 0 6 0;
#X connect 1 0 7 0;
#X connect 3 0 4 0;
#X connect 4 0 2 0;
#X connect 4 0 2 1;
#X connect 5 0 4 0;
#X connect 6 0 4 0;
#X connect 7 0 4 0;
#X connect 8 0 3 1;
#X connect 8 1 5 1;
#X connect 8 2 6 1;
#X connect 8 3 7 1;
#X connect 8 4 9 0;
#X connect 8 4 3 2;
#X connect 8 4 5 2;
#X connect 8 4 6 2;
#X connect 8 4 7 2;
#X connect 9 0 22 0;
#X connect 10 0 8 0;
#X connect 11 0 10 0;
#X connect 11 0 21 0;
#X connect 11 0 29 0;
#X connect 12 0 13 1;
#X connect 13 0 15 0;
#X connect 13 0 16 0;
#X connect 13 0 17 0;
#X connect 13 0 18 0;
#X connect 15 0 25 0;
#X connect 16 0 25 0;
#X connect 17 0 25 0;
#X connect 18 0 25 0;
#X connect 19 0 15 1;
#X connect 19 1 16 1;
#X connect 19 2 17 1;
#X connect 19 3 18 1;
#X connect 19 4 20 0;
#X connect 19 4 15 2;
#X connect 19 4 16 2;
#X connect 19 4 17 2;
#X connect 19 4 18 2;
#X connect 20 0 28 0;
#X connect 21 0 27 0;
#X connect 22 0 1 0;
#X connect 22 0 26 0;
#X connect 23 0 24 0;
#X connect 24 0 21 1;
#X connect 25 0 26 1;
#X connect 26 0 14 0;
#X connect 26 0 14 1;
#X connect 27 0 19 0;
#X connect 28 0 13 0;
#X connect 29 0 23 0;
