#N canvas 0 50 1920 997 10;
#X obj 233 362 dac~;
#X obj 168 302 tabosc4~ sqr;
#X obj 231 128 bng 15 250 50 0 empty empty empty 17 7 0 10 -262144
-1 -1;
#X obj 235 43 table sqr;
#X obj 234 321 *~;
#X obj 167 240 vline~;
#X msg 255 176 0;
#X msg 179 60 \; sqr sinesum 2051 1 0 0.333 0 0.2 0 0.1429 0 0.111
0 0.09 0 0.077 0 0.067 0 0.059 0 0.053 0 0.048;
#X obj 289 218 vline~;
#X obj 179 43 loadbang;
#X obj 168 280 +~ 300;
#X obj 167 262 *~ 700;
#X obj 290 180 delay 1;
#X obj 167 187 + 500;
#X obj 166 170 random 4000;
#X obj 234 340 bp~ 500 90;
#X obj 231 109 r jumpBang;
#X obj 166 153 delay 1;
#X text 291 150 delay to reset last jump before the next starts;
#X msg 166 222 \$2 \$1;
#X obj 167 204 pack \$1 10;
#X msg 290 201 2 0 \, 0 0 600;
#X connect 1 0 4 0;
#X connect 2 0 6 0;
#X connect 2 0 12 0;
#X connect 2 0 17 0;
#X connect 4 0 15 0;
#X connect 5 0 11 0;
#X connect 6 0 5 0;
#X connect 6 0 8 0;
#X connect 8 0 4 1;
#X connect 9 0 7 0;
#X connect 10 0 1 0;
#X connect 11 0 10 0;
#X connect 12 0 21 0;
#X connect 13 0 20 0;
#X connect 14 0 13 0;
#X connect 15 0 0 0;
#X connect 15 0 0 1;
#X connect 16 0 2 0;
#X connect 17 0 14 0;
#X connect 19 0 5 0;
#X connect 20 0 19 0;
#X connect 21 0 8 0;
