#N canvas 953 50 958 988 10;
#X obj 188 92 noise~;
#X obj 185 422 dac~;
#X obj 187 359 *~;
#X floatatom 202 305 5 0 0 0 - - -, f 5;
#X obj 215 199 snapshot~;
#X obj 284 151 vline~;
#X obj 186 398 *~;
#X obj 330 86 bng 15 250 50 0 empty empty empty 17 7 0 10 -262144 -1
-1;
#X obj 215 122 loadbang;
#X obj 215 146 metro 10;
#X obj 186 379 hip~ 50;
#X obj 272 262 + 15;
#X msg 284 127 1 300 \, 0 500 800;
#X obj 284 105 del 10;
#X msg 392 134 0;
#X obj 187 284 bp~ 500 15;
#X obj 272 240 *;
#X obj 287 220 / 100;
#X msg 336 176 seed 5;
#X obj 336 154 loadbang;
#X obj 329 198 random 2000;
#X obj 330 64 r throwBang;
#X obj 230 322 r throwVol;
#X obj 202 339 f;
#X obj 215 258 + 500;
#X obj 215 238 * 3000;
#X obj 313 288 vline~;
#X msg 313 267 2 200 \, 0 150 200;
#X msg 267 298 1;
#X connect 0 0 15 0;
#X connect 2 0 10 0;
#X connect 3 0 23 0;
#X connect 4 0 16 0;
#X connect 4 0 25 0;
#X connect 5 0 4 0;
#X connect 6 0 1 0;
#X connect 6 0 1 1;
#X connect 7 0 14 0;
#X connect 7 0 13 0;
#X connect 7 0 20 0;
#X connect 7 0 28 0;
#X connect 8 0 9 0;
#X connect 9 0 4 0;
#X connect 10 0 6 0;
#X connect 11 0 15 2;
#X connect 12 0 5 0;
#X connect 13 0 12 0;
#X connect 13 0 27 0;
#X connect 14 0 5 0;
#X connect 14 0 26 0;
#X connect 15 0 2 0;
#X connect 16 0 11 0;
#X connect 17 0 16 1;
#X connect 18 0 20 0;
#X connect 19 0 18 0;
#X connect 20 0 17 0;
#X connect 21 0 7 0;
#X connect 22 0 23 0;
#X connect 23 0 2 1;
#X connect 24 0 15 1;
#X connect 25 0 24 0;
#X connect 26 0 6 1;
#X connect 27 0 26 0;
#X connect 28 0 23 0;
