#N canvas 0 50 1916 997 10;
#X obj 559 669 dac~;
#X msg 608 95 bang;
#N canvas 953 50 958 988 (subpatch) 0;
#X obj 65 275 *~ 1;
#X obj 160 278 *~ 0.7;
#X obj 245 279 *~ 0.5;
#X obj 332 279 *~ 0.4;
#X obj 424 281 *~ 0.3;
#X obj 515 282 *~ 0.3;
#X obj 606 282 *~ 0.2;
#X obj 695 284 *~ 0.1;
#X obj 151 234 osc~;
#X obj 689 235 osc~;
#X floatatom 57 206 5 0 0 0 - - -, f 5;
#X floatatom 144 208 5 0 0 0 - - -, f 5;
#X floatatom 235 207 5 0 0 0 - - -, f 5;
#X floatatom 322 209 5 0 0 0 - - -, f 5;
#X floatatom 414 209 5 0 0 0 - - -, f 5;
#X floatatom 506 209 5 0 0 0 - - -, f 5;
#X floatatom 597 211 5 0 0 0 - - -, f 5;
#X floatatom 683 211 5 0 0 0 - - -, f 5;
#X obj 61 176 * 1;
#X obj 150 180 * 2;
#X obj 237 178 * 3;
#X obj 320 180 * 4;
#X obj 414 179 * 5;
#X obj 508 180 * 6;
#X obj 601 181 * 7;
#X obj 688 179 * 8;
#X obj 330 90 inlet;
#X obj 330 466 outlet~;
#X obj 333 377 *~ 0.4;
#X obj 62 233 osc~;
#X obj 239 234 osc~;
#X obj 328 234 osc~;
#X obj 421 234 osc~;
#X obj 510 235 osc~;
#X obj 600 234 osc~;
#X connect 0 0 28 0;
#X connect 1 0 28 0;
#X connect 2 0 28 0;
#X connect 3 0 28 0;
#X connect 4 0 28 0;
#X connect 5 0 28 0;
#X connect 6 0 28 0;
#X connect 7 0 28 0;
#X connect 8 0 1 0;
#X connect 9 0 7 0;
#X connect 10 0 29 0;
#X connect 11 0 8 0;
#X connect 12 0 30 0;
#X connect 13 0 31 0;
#X connect 14 0 32 0;
#X connect 15 0 33 0;
#X connect 16 0 34 0;
#X connect 17 0 9 0;
#X connect 18 0 10 0;
#X connect 19 0 11 0;
#X connect 20 0 12 0;
#X connect 21 0 13 0;
#X connect 22 0 14 0;
#X connect 23 0 15 0;
#X connect 24 0 16 0;
#X connect 25 0 17 0;
#X connect 26 0 18 0;
#X connect 26 0 19 0;
#X connect 26 0 20 0;
#X connect 26 0 21 0;
#X connect 26 0 22 0;
#X connect 26 0 23 0;
#X connect 26 0 24 0;
#X connect 26 0 25 0;
#X connect 28 0 27 0;
#X connect 29 0 0 0;
#X connect 30 0 2 0;
#X connect 31 0 3 0;
#X connect 32 0 4 0;
#X connect 33 0 5 0;
#X connect 34 0 6 0;
#X restore 751 406 pd;
#N canvas 953 50 958 988 (subpatch) 0;
#X obj 65 275 *~ 1;
#X obj 160 278 *~ 0.7;
#X obj 245 279 *~ 0.5;
#X obj 332 279 *~ 0.4;
#X obj 424 281 *~ 0.3;
#X obj 515 282 *~ 0.3;
#X obj 606 282 *~ 0.2;
#X obj 695 284 *~ 0.1;
#X obj 333 377 *~ 0.4;
#X obj 62 233 osc~;
#X obj 151 234 osc~;
#X obj 239 234 osc~;
#X obj 328 234 osc~;
#X obj 420 234 osc~;
#X obj 510 235 osc~;
#X obj 600 234 osc~;
#X obj 689 235 osc~;
#X floatatom 57 206 5 0 0 0 - - -, f 5;
#X floatatom 144 208 5 0 0 0 - - -, f 5;
#X floatatom 235 207 5 0 0 0 - - -, f 5;
#X floatatom 322 209 5 0 0 0 - - -, f 5;
#X floatatom 414 209 5 0 0 0 - - -, f 5;
#X floatatom 506 209 5 0 0 0 - - -, f 5;
#X floatatom 597 211 5 0 0 0 - - -, f 5;
#X floatatom 683 211 5 0 0 0 - - -, f 5;
#X obj 61 176 * 1;
#X obj 150 180 * 2;
#X obj 237 178 * 3;
#X obj 320 180 * 4;
#X obj 414 179 * 5;
#X obj 508 180 * 6;
#X obj 601 181 * 7;
#X obj 688 179 * 8;
#X obj 330 90 inlet;
#X obj 330 466 outlet~;
#X connect 0 0 8 0;
#X connect 1 0 8 0;
#X connect 2 0 8 0;
#X connect 3 0 8 0;
#X connect 4 0 8 0;
#X connect 5 0 8 0;
#X connect 6 0 8 0;
#X connect 7 0 8 0;
#X connect 8 0 34 0;
#X connect 9 0 0 0;
#X connect 10 0 1 0;
#X connect 11 0 2 0;
#X connect 12 0 3 0;
#X connect 13 0 4 0;
#X connect 14 0 5 0;
#X connect 15 0 6 0;
#X connect 16 0 7 0;
#X connect 17 0 9 0;
#X connect 18 0 10 0;
#X connect 19 0 11 0;
#X connect 20 0 12 0;
#X connect 21 0 13 0;
#X connect 22 0 14 0;
#X connect 23 0 15 0;
#X connect 24 0 16 0;
#X connect 25 0 17 0;
#X connect 26 0 18 0;
#X connect 27 0 19 0;
#X connect 28 0 20 0;
#X connect 29 0 21 0;
#X connect 30 0 22 0;
#X connect 31 0 23 0;
#X connect 32 0 24 0;
#X connect 33 0 27 0;
#X connect 33 0 28 0;
#X connect 33 0 29 0;
#X connect 33 0 30 0;
#X connect 33 0 31 0;
#X connect 33 0 32 0;
#X connect 33 0 26 0;
#X connect 33 0 25 0;
#X restore 379 408 pd;
#X obj 352 443 *~;
#X obj 752 461 *~;
#X floatatom 306 331 5 0 0 0 - - -, f 5;
#X floatatom 782 331 5 0 0 0 - - -, f 5;
#X obj 317 404 / 100;
#X obj 784 424 / 100;
#X obj 421 444 *~;
#X obj 422 417 line~;
#X obj 873 458 *~;
#X obj 874 431 line~;
#N canvas 953 50 958 988 (subpatch) 0;
#X obj 65 275 *~ 1;
#X obj 160 278 *~ 0.7;
#X obj 245 279 *~ 0.5;
#X obj 332 279 *~ 0.4;
#X obj 424 281 *~ 0.3;
#X obj 515 282 *~ 0.3;
#X obj 606 282 *~ 0.2;
#X obj 695 284 *~ 0.1;
#X obj 151 234 osc~;
#X obj 328 234 osc~;
#X obj 510 235 osc~;
#X obj 689 235 osc~;
#X floatatom 57 206 5 0 0 0 - - -, f 5;
#X floatatom 144 208 5 0 0 0 - - -, f 5;
#X floatatom 235 207 5 0 0 0 - - -, f 5;
#X floatatom 322 209 5 0 0 0 - - -, f 5;
#X floatatom 414 209 5 0 0 0 - - -, f 5;
#X floatatom 506 209 5 0 0 0 - - -, f 5;
#X floatatom 597 211 5 0 0 0 - - -, f 5;
#X floatatom 683 211 5 0 0 0 - - -, f 5;
#X obj 61 176 * 1;
#X obj 150 180 * 2;
#X obj 237 178 * 3;
#X obj 320 180 * 4;
#X obj 414 179 * 5;
#X obj 508 180 * 6;
#X obj 601 181 * 7;
#X obj 688 179 * 8;
#X obj 330 90 inlet;
#X obj 330 466 outlet~;
#X obj 333 377 *~ 0.4;
#X obj 62 233 osc~;
#X obj 239 234 osc~;
#X obj 421 234 osc~;
#X obj 600 234 osc~;
#X connect 0 0 30 0;
#X connect 1 0 30 0;
#X connect 2 0 30 0;
#X connect 3 0 30 0;
#X connect 4 0 30 0;
#X connect 5 0 30 0;
#X connect 6 0 30 0;
#X connect 7 0 30 0;
#X connect 8 0 1 0;
#X connect 9 0 3 0;
#X connect 10 0 5 0;
#X connect 11 0 7 0;
#X connect 12 0 31 0;
#X connect 13 0 8 0;
#X connect 14 0 32 0;
#X connect 15 0 9 0;
#X connect 16 0 33 0;
#X connect 17 0 10 0;
#X connect 18 0 34 0;
#X connect 19 0 11 0;
#X connect 20 0 12 0;
#X connect 21 0 13 0;
#X connect 22 0 14 0;
#X connect 23 0 15 0;
#X connect 24 0 16 0;
#X connect 25 0 17 0;
#X connect 26 0 18 0;
#X connect 27 0 19 0;
#X connect 28 0 20 0;
#X connect 28 0 21 0;
#X connect 28 0 22 0;
#X connect 28 0 23 0;
#X connect 28 0 24 0;
#X connect 28 0 25 0;
#X connect 28 0 26 0;
#X connect 28 0 27 0;
#X connect 30 0 29 0;
#X connect 31 0 0 0;
#X connect 32 0 2 0;
#X connect 33 0 4 0;
#X connect 34 0 6 0;
#X restore 586 415 pd;
#X obj 558 450 *~;
#X floatatom 518 321 5 0 0 0 - - -, f 5;
#X obj 526 414 / 100;
#X obj 627 458 *~;
#X obj 628 431 line~;
#X obj 584 497 *~;
#X obj 831 496 *~;
#X obj 370 488 *~;
#X obj 567 623 +~;
#X msg 871 406 1 \, 0 1100;
#X msg 422 391 1 \, 0 1300;
#X msg 363 334 440;
#X obj 610 173 delay 100 1 msec;
#X obj 790 204 delay 200 1 msec;
#X msg 721 322 1500;
#N canvas 953 50 958 988 (subpatch) 0;
#X obj 65 275 *~ 1;
#X obj 160 278 *~ 0.7;
#X obj 245 279 *~ 0.5;
#X obj 332 279 *~ 0.4;
#X obj 424 281 *~ 0.3;
#X obj 515 282 *~ 0.3;
#X obj 606 282 *~ 0.2;
#X obj 695 284 *~ 0.1;
#X obj 151 234 osc~;
#X obj 689 235 osc~;
#X floatatom 57 206 5 0 0 0 - - -, f 5;
#X floatatom 144 208 5 0 0 0 - - -, f 5;
#X floatatom 235 207 5 0 0 0 - - -, f 5;
#X floatatom 322 209 5 0 0 0 - - -, f 5;
#X floatatom 414 209 5 0 0 0 - - -, f 5;
#X floatatom 506 209 5 0 0 0 - - -, f 5;
#X floatatom 597 211 5 0 0 0 - - -, f 5;
#X floatatom 683 211 5 0 0 0 - - -, f 5;
#X obj 61 176 * 1;
#X obj 150 180 * 2;
#X obj 237 178 * 3;
#X obj 320 180 * 4;
#X obj 414 179 * 5;
#X obj 508 180 * 6;
#X obj 601 181 * 7;
#X obj 688 179 * 8;
#X obj 330 90 inlet;
#X obj 330 466 outlet~;
#X obj 333 377 *~ 0.4;
#X obj 62 233 osc~;
#X obj 239 234 osc~;
#X obj 328 234 osc~;
#X obj 421 234 osc~;
#X obj 510 235 osc~;
#X obj 600 234 osc~;
#X connect 0 0 28 0;
#X connect 1 0 28 0;
#X connect 2 0 28 0;
#X connect 3 0 28 0;
#X connect 4 0 28 0;
#X connect 5 0 28 0;
#X connect 6 0 28 0;
#X connect 7 0 28 0;
#X connect 8 0 1 0;
#X connect 9 0 7 0;
#X connect 10 0 29 0;
#X connect 11 0 8 0;
#X connect 12 0 30 0;
#X connect 13 0 31 0;
#X connect 14 0 32 0;
#X connect 15 0 33 0;
#X connect 16 0 34 0;
#X connect 17 0 9 0;
#X connect 18 0 10 0;
#X connect 19 0 11 0;
#X connect 20 0 12 0;
#X connect 21 0 13 0;
#X connect 22 0 14 0;
#X connect 23 0 15 0;
#X connect 24 0 16 0;
#X connect 25 0 17 0;
#X connect 26 0 18 0;
#X connect 26 0 19 0;
#X connect 26 0 20 0;
#X connect 26 0 21 0;
#X connect 26 0 22 0;
#X connect 26 0 23 0;
#X connect 26 0 24 0;
#X connect 26 0 25 0;
#X connect 28 0 27 0;
#X connect 29 0 0 0;
#X connect 30 0 2 0;
#X connect 31 0 3 0;
#X connect 32 0 4 0;
#X connect 33 0 5 0;
#X connect 34 0 6 0;
#X restore 985 416 pd;
#X obj 986 471 *~;
#X floatatom 973 366 5 0 0 0 - - -, f 5;
#X obj 1018 434 / 100;
#X obj 1107 468 *~;
#X obj 1108 441 line~;
#X obj 1065 506 *~;
#X msg 1105 416 1 \, 0 1100;
#X msg 923 347 1800;
#X msg 625 406 1 \, 0 1400;
#X msg 573 297 999;
#X obj 1107 283 ead~ 1000 -1;
#X connect 1 0 27 0;
#X connect 1 0 28 0;
#X connect 1 0 26 0;
#X connect 2 0 5 0;
#X connect 3 0 4 1;
#X connect 4 0 22 0;
#X connect 5 0 21 0;
#X connect 6 0 8 0;
#X connect 7 0 9 0;
#X connect 8 0 4 0;
#X connect 9 0 5 1;
#X connect 10 0 22 1;
#X connect 11 0 10 0;
#X connect 11 0 10 1;
#X connect 12 0 21 1;
#X connect 13 0 12 0;
#X connect 13 0 12 1;
#X connect 14 0 15 1;
#X connect 15 0 20 0;
#X connect 16 0 17 0;
#X connect 17 0 15 0;
#X connect 18 0 20 1;
#X connect 19 0 18 0;
#X connect 19 0 18 1;
#X connect 20 0 23 0;
#X connect 21 0 23 0;
#X connect 22 0 23 0;
#X connect 23 0 0 0;
#X connect 23 0 0 1;
#X connect 24 0 13 0;
#X connect 25 0 11 0;
#X connect 26 0 3 0;
#X connect 27 0 39 0;
#X connect 27 0 40 0;
#X connect 28 0 29 0;
#X connect 28 0 24 0;
#X connect 28 0 38 0;
#X connect 28 0 37 0;
#X connect 29 0 2 0;
#X connect 30 0 31 0;
#X connect 31 0 36 0;
#X connect 32 0 33 0;
#X connect 33 0 31 1;
#X connect 34 0 36 1;
#X connect 35 0 34 0;
#X connect 35 0 34 1;
#X connect 36 0 23 0;
#X connect 37 0 35 0;
#X connect 38 0 30 0;
#X connect 39 0 19 0;
#X connect 40 0 14 0;
