#N canvas -7 0 958 988 10;
#X obj 146 124 hip~ 15000;
#X obj 146 146 hip~ 15000;
#X obj 146 167 hip~ 15000;
#X obj 146 190 hip~ 15000;
#X obj 146 213 lop~ 20000;
#X obj 146 235 lop~ 20000;
#X obj 146 259 lop~ 20000;
#X obj 146 283 lop~ 20000;
#X obj 145 86 noise~;
#X obj 161 510 dac~;
#X obj 31 268 r smokeVolume;
#X obj 623 136 bng 15 250 50 0 empty empty empty 17 7 0 10 -262144
-1 -1;
#X obj 675 23 r smokebang;
#X obj 365 358 *;
#X obj 532 404 *;
#X obj 668 415 *;
#X obj 583 460 +;
#X obj 657 62 bng 15 250 50 0 empty empty empty 17 7 0 10 -262144 -1
-1;
#X obj 663 378 f;
#X obj 666 297 tgl 15 0 empty empty empty 17 7 0 10 -262144 -1 -1 1
1;
#X msg 667 322 bang;
#X obj 530 360 f;
#X obj 539 296 tgl 15 0 empty empty empty 17 7 0 10 -262144 -1 -1 0
1;
#X msg 539 316 bang;
#X obj 64 334 f;
#X obj 177 442 *~;
#X msg 267 77 1;
#X obj 691 166 metro 1000;
#X obj 594 217 timer 1 persec;
#X obj 582 272 < 3;
#X obj 869 284 >= 3;
#X obj 288 390 exp;
#X obj 234 429 sig~;
#X obj 47 415 print;
#X msg 384 243 0.1;
#X msg 875 381 -0.2;
#X floatatom 68 558 5 0 0 0 - - -, f 5;
#X floatatom 314 488 5 0 0 0 - - -, f 5;
#X floatatom 607 605 5 0 0 0 - - -, f 5;
#X floatatom 679 491 5 0 0 0 - - -, f 5;
#X obj 617 544 != 0;
#X msg 535 572 bang;
#X obj 430 534 f;
#X floatatom 429 613 5 0 0 0 - - -, f 5;
#X connect 0 0 1 0;
#X connect 1 0 2 0;
#X connect 2 0 3 0;
#X connect 3 0 4 0;
#X connect 4 0 5 0;
#X connect 5 0 6 0;
#X connect 6 0 7 0;
#X connect 7 0 25 0;
#X connect 8 0 0 0;
#X connect 10 0 24 1;
#X connect 11 0 34 0;
#X connect 11 0 35 0;
#X connect 11 0 28 0;
#X connect 12 0 17 0;
#X connect 13 0 31 0;
#X connect 14 0 16 0;
#X connect 15 0 16 1;
#X connect 15 0 39 0;
#X connect 15 0 40 0;
#X connect 16 0 13 0;
#X connect 17 0 11 0;
#X connect 17 0 24 0;
#X connect 17 0 27 0;
#X connect 17 0 26 0;
#X connect 18 0 15 0;
#X connect 19 0 20 0;
#X connect 20 0 18 0;
#X connect 21 0 14 0;
#X connect 22 0 23 0;
#X connect 23 0 21 0;
#X connect 24 0 33 0;
#X connect 24 0 36 0;
#X connect 25 0 9 0;
#X connect 25 0 9 1;
#X connect 26 0 24 1;
#X connect 27 0 28 1;
#X connect 28 0 13 1;
#X connect 28 0 29 0;
#X connect 28 0 30 0;
#X connect 29 0 14 1;
#X connect 29 0 22 0;
#X connect 30 0 15 1;
#X connect 30 0 19 0;
#X connect 31 0 32 0;
#X connect 31 0 24 1;
#X connect 31 0 37 0;
#X connect 31 0 42 1;
#X connect 32 0 25 1;
#X connect 34 0 21 1;
#X connect 35 0 18 1;
#X connect 40 0 38 0;
#X connect 40 0 41 0;
#X connect 41 0 42 0;
#X connect 42 0 43 0;
