#N canvas 0 50 958 988 10;
#X obj 146 124 hip~ 15000;
#X obj 146 146 hip~ 15000;
#X obj 146 167 hip~ 15000;
#X obj 146 190 hip~ 15000;
#X obj 146 213 lop~ 20000;
#X obj 146 235 lop~ 20000;
#X obj 146 259 lop~ 20000;
#X obj 146 283 lop~ 20000;
#X obj 145 86 noise~;
#X obj 243 590 dac~;
#X obj 623 158 r smokeVolume;
#X obj 636 -27 r smokebang;
#X obj 618 15 bng 15 250 50 0 empty empty empty 17 7 0 10 -262144 -1
-1;
#X obj 598 200 f;
#X obj 190 428 *~;
#X obj 258 315 exp;
#X obj 232 398 sig~;
#X obj 283 267 f;
#X obj 286 195 sel 1;
#X floatatom 308 308 5 0 0 0 - - -, f 5;
#X obj 261 357 *;
#X msg 356 234 bang;
#X floatatom 370 155 5 0 0 0 - - -, f 5;
#X obj 287 126 timer 1 persec;
#X floatatom 290 400 5 0 0 0 - - -, f 5;
#X obj 497 50 delay 100;
#X obj 469 396 f;
#X msg 503 363 0;
#X msg 316 28 stop;
#X obj 522 115 delay 10;
#X obj 265 472 *~;
#X obj 403 73 metro 100;
#X obj 389 343 f;
#X obj 647 311 r stopbang;
#X obj 582 342 bng 15 250 50 0 empty empty empty 17 7 0 10 -262144
-1 -1;
#X msg 465 364 1;
#X msg 252 235 0.02;
#X msg 299 234 -0.1;
#X obj 265 521 *~;
#X obj 327 480 f;
#X obj 439 445 r smokeScale;
#X msg 437 492 1;
#X obj 287 160 < 1;
#X msg 599 252 1;
#X connect 0 0 1 0;
#X connect 1 0 2 0;
#X connect 2 0 3 0;
#X connect 3 0 4 0;
#X connect 4 0 5 0;
#X connect 5 0 6 0;
#X connect 6 0 7 0;
#X connect 7 0 14 0;
#X connect 8 0 0 0;
#X connect 10 0 13 1;
#X connect 11 0 12 0;
#X connect 12 0 13 0;
#X connect 12 0 25 0;
#X connect 12 0 29 0;
#X connect 12 0 35 0;
#X connect 13 0 32 1;
#X connect 14 0 30 0;
#X connect 15 0 20 0;
#X connect 16 0 14 1;
#X connect 17 0 15 0;
#X connect 17 0 19 0;
#X connect 18 0 21 0;
#X connect 18 0 36 0;
#X connect 18 1 21 0;
#X connect 18 1 37 0;
#X connect 20 0 16 0;
#X connect 20 0 24 0;
#X connect 20 0 32 1;
#X connect 21 0 32 0;
#X connect 23 0 22 0;
#X connect 23 0 42 0;
#X connect 25 0 23 0;
#X connect 25 0 31 0;
#X connect 26 0 30 1;
#X connect 27 0 26 0;
#X connect 28 0 31 0;
#X connect 29 0 32 0;
#X connect 30 0 38 0;
#X connect 31 0 23 1;
#X connect 32 0 20 1;
#X connect 33 0 34 0;
#X connect 34 0 27 0;
#X connect 34 0 28 0;
#X connect 35 0 26 0;
#X connect 36 0 17 0;
#X connect 37 0 17 0;
#X connect 38 0 9 0;
#X connect 38 0 9 1;
#X connect 39 0 38 1;
#X connect 40 0 39 0;
#X connect 41 0 39 0;
#X connect 42 0 18 0;
#X connect 43 0 13 1;
