#N canvas 0 50 958 988 10;
#X obj 146 124 hip~ 15000;
#X obj 146 146 hip~ 15000;
#X obj 146 167 hip~ 15000;
#X obj 146 190 hip~ 15000;
#X obj 146 213 lop~ 20000;
#X obj 146 235 lop~ 20000;
#X obj 146 259 lop~ 20000;
#X obj 146 283 lop~ 20000;
#X obj 145 86 noise~;
#X obj 246 781 dac~;
#X obj 652 212 r smokeVolume;
#X obj 636 -27 r smokebang;
#X obj 618 15 bng 15 250 50 0 empty empty empty 17 7 0 10 -262144 -1
-1;
#X obj 637 286 f;
#X obj 203 576 *~;
#X msg 757 218 1;
#X obj 257 358 exp;
#X obj 245 546 sig~;
#X floatatom 736 324 5 0 0 0 - - -, f 5;
#X obj 283 290 f;
#X obj 323 203 sel 1;
#X floatatom 320 341 5 0 0 0 - - -, f 5;
#X obj 285 473 *;
#X floatatom 216 417 5 0 0 0 - - -, f 5;
#X msg 390 315 bang;
#X floatatom 439 176 5 0 0 0 - - -, f 5;
#X obj 324 134 timer 1 persec;
#X floatatom 303 548 5 0 0 0 - - -, f 5;
#X obj 497 50 delay 100;
#X floatatom 584 425 5 0 0 0 - - -, f 5;
#X obj 429 476 sel 1;
#X obj 369 679 f;
#X msg 400 633 1;
#X msg 357 633 0;
#X msg 271 46 stop;
#X obj 522 115 delay 10;
#X obj 252 735 *~;
#X obj 403 73 metro 100;
#X obj 288 614 print;
#X obj 324 168 < 3;
#X msg 771 35 0.3;
#X msg 307 245 -0.08;
#X msg 260 244 0.06;
#X obj 426 433 < 0.01;
#X obj 779 82 value l, f 11;
#X obj 468 385 expr l;
#X obj 319 498 value l, f 11;
#X connect 0 0 1 0;
#X connect 1 0 2 0;
#X connect 2 0 3 0;
#X connect 3 0 4 0;
#X connect 4 0 5 0;
#X connect 5 0 6 0;
#X connect 6 0 7 0;
#X connect 7 0 14 0;
#X connect 8 0 0 0;
#X connect 10 0 13 1;
#X connect 11 0 12 0;
#X connect 12 0 13 0;
#X connect 12 0 15 0;
#X connect 12 0 40 0;
#X connect 12 0 28 0;
#X connect 12 0 35 0;
#X connect 13 0 18 0;
#X connect 14 0 36 0;
#X connect 15 0 13 1;
#X connect 16 0 22 0;
#X connect 16 0 23 0;
#X connect 17 0 14 1;
#X connect 19 0 16 0;
#X connect 19 0 21 0;
#X connect 20 0 42 0;
#X connect 20 0 24 0;
#X connect 20 1 41 0;
#X connect 20 1 24 0;
#X connect 22 0 17 0;
#X connect 22 0 27 0;
#X connect 22 0 38 0;
#X connect 22 0 46 0;
#X connect 24 0 45 0;
#X connect 26 0 25 0;
#X connect 26 0 39 0;
#X connect 28 0 26 0;
#X connect 28 0 37 0;
#X connect 30 0 34 0;
#X connect 30 0 32 0;
#X connect 30 1 32 0;
#X connect 31 0 36 1;
#X connect 32 0 31 0;
#X connect 34 0 37 0;
#X connect 35 0 45 0;
#X connect 36 0 9 0;
#X connect 36 0 9 1;
#X connect 37 0 26 1;
#X connect 39 0 20 0;
#X connect 40 0 44 0;
#X connect 41 0 19 0;
#X connect 42 0 19 0;
#X connect 43 0 30 0;
#X connect 45 0 29 0;
#X connect 45 0 22 1;
#X connect 45 0 43 0;
