#N canvas 4539 331 578 376 10;
#X obj 190 228 dac~;
#X obj 190 202 *~;
#X obj 226 180 *~ 10;
#X obj 126 147 hip~ 4000;
#X obj 226 156 lop~ 60;
#X obj 127 112 noise~;
#X obj 227 130 *~;
#X msg 281 138 1;
#X msg 242 109 0;
#X obj 223 91 bng 15 250 50 0 empty empty empty 17 7 0 10 -262144 -1
-1;
#X obj 193 61 delay 1 500 msec;
#X obj 117 24 r fuse;
#X msg 117 47 f;
#X obj 214 33 trigger bang anything;
#X connect 1 0 0 0;
#X connect 1 0 0 1;
#X connect 2 0 1 1;
#X connect 3 0 1 0;
#X connect 4 0 2 0;
#X connect 5 0 6 0;
#X connect 6 0 3 0;
#X connect 6 0 4 0;
#X connect 7 0 6 1;
#X connect 8 0 6 1;
#X connect 9 0 8 0;
#X connect 10 0 9 0;
#X connect 11 0 12 0;
#X connect 12 0 13 0;
#X connect 13 0 10 0;
#X connect 13 1 7 0;
