#N canvas -8 -8 1536 781 10;
#X obj 100 663 dac~;
#N canvas 953 50 958 988 (subpatch) 0;
#X obj 65 275 *~ 1;
#X obj 160 278 *~ 0.7;
#X obj 245 279 *~ 0.5;
#X obj 332 279 *~ 0.4;
#X obj 424 281 *~ 0.3;
#X obj 515 282 *~ 0.3;
#X obj 606 282 *~ 0.2;
#X obj 695 284 *~ 0.1;
#X obj 151 234 osc~;
#X obj 689 235 osc~;
#X floatatom 57 206 5 0 0 0 - - -, f 5;
#X floatatom 144 208 5 0 0 0 - - -, f 5;
#X floatatom 235 207 5 0 0 0 - - -, f 5;
#X floatatom 322 209 5 0 0 0 - - -, f 5;
#X floatatom 414 209 5 0 0 0 - - -, f 5;
#X floatatom 506 209 5 0 0 0 - - -, f 5;
#X floatatom 597 211 5 0 0 0 - - -, f 5;
#X floatatom 683 211 5 0 0 0 - - -, f 5;
#X obj 61 176 * 1;
#X obj 150 180 * 2;
#X obj 237 178 * 3;
#X obj 320 180 * 4;
#X obj 414 179 * 5;
#X obj 508 180 * 6;
#X obj 601 181 * 7;
#X obj 688 179 * 8;
#X obj 330 90 inlet;
#X obj 330 466 outlet~;
#X obj 333 377 *~ 0.4;
#X obj 62 233 osc~;
#X obj 239 234 osc~;
#X obj 328 234 osc~;
#X obj 421 234 osc~;
#X obj 510 235 osc~;
#X obj 600 234 osc~;
#X connect 0 0 28 0;
#X connect 1 0 28 0;
#X connect 2 0 28 0;
#X connect 3 0 28 0;
#X connect 4 0 28 0;
#X connect 5 0 28 0;
#X connect 6 0 28 0;
#X connect 7 0 28 0;
#X connect 8 0 1 0;
#X connect 9 0 7 0;
#X connect 10 0 29 0;
#X connect 11 0 8 0;
#X connect 12 0 30 0;
#X connect 13 0 31 0;
#X connect 14 0 32 0;
#X connect 15 0 33 0;
#X connect 16 0 34 0;
#X connect 17 0 9 0;
#X connect 18 0 10 0;
#X connect 19 0 11 0;
#X connect 20 0 12 0;
#X connect 21 0 13 0;
#X connect 22 0 14 0;
#X connect 23 0 15 0;
#X connect 24 0 16 0;
#X connect 25 0 17 0;
#X connect 26 0 18 0;
#X connect 26 0 19 0;
#X connect 26 0 20 0;
#X connect 26 0 21 0;
#X connect 26 0 22 0;
#X connect 26 0 23 0;
#X connect 26 0 24 0;
#X connect 26 0 25 0;
#X connect 28 0 27 0;
#X connect 29 0 0 0;
#X connect 30 0 2 0;
#X connect 31 0 3 0;
#X connect 32 0 4 0;
#X connect 33 0 5 0;
#X connect 34 0 6 0;
#X restore 292 400 pd;
#N canvas 953 50 958 988 (subpatch) 0;
#X obj 65 275 *~ 1;
#X obj 160 278 *~ 0.7;
#X obj 245 279 *~ 0.5;
#X obj 332 279 *~ 0.4;
#X obj 424 281 *~ 0.3;
#X obj 515 282 *~ 0.3;
#X obj 606 282 *~ 0.2;
#X obj 695 284 *~ 0.1;
#X obj 333 377 *~ 0.4;
#X obj 62 233 osc~;
#X obj 151 234 osc~;
#X obj 239 234 osc~;
#X obj 328 234 osc~;
#X obj 420 234 osc~;
#X obj 510 235 osc~;
#X obj 600 234 osc~;
#X obj 689 235 osc~;
#X floatatom 57 206 5 0 0 0 - - -, f 5;
#X floatatom 144 208 5 0 0 0 - - -, f 5;
#X floatatom 235 207 5 0 0 0 - - -, f 5;
#X floatatom 322 209 5 0 0 0 - - -, f 5;
#X floatatom 414 209 5 0 0 0 - - -, f 5;
#X floatatom 506 209 5 0 0 0 - - -, f 5;
#X floatatom 597 211 5 0 0 0 - - -, f 5;
#X floatatom 683 211 5 0 0 0 - - -, f 5;
#X obj 61 176 * 1;
#X obj 150 180 * 2;
#X obj 237 178 * 3;
#X obj 320 180 * 4;
#X obj 414 179 * 5;
#X obj 508 180 * 6;
#X obj 601 181 * 7;
#X obj 688 179 * 8;
#X obj 330 90 inlet;
#X obj 330 466 outlet~;
#X connect 0 0 8 0;
#X connect 1 0 8 0;
#X connect 2 0 8 0;
#X connect 3 0 8 0;
#X connect 4 0 8 0;
#X connect 5 0 8 0;
#X connect 6 0 8 0;
#X connect 7 0 8 0;
#X connect 8 0 34 0;
#X connect 9 0 0 0;
#X connect 10 0 1 0;
#X connect 11 0 2 0;
#X connect 12 0 3 0;
#X connect 13 0 4 0;
#X connect 14 0 5 0;
#X connect 15 0 6 0;
#X connect 16 0 7 0;
#X connect 17 0 9 0;
#X connect 18 0 10 0;
#X connect 19 0 11 0;
#X connect 20 0 12 0;
#X connect 21 0 13 0;
#X connect 22 0 14 0;
#X connect 23 0 15 0;
#X connect 24 0 16 0;
#X connect 25 0 17 0;
#X connect 26 0 18 0;
#X connect 27 0 19 0;
#X connect 28 0 20 0;
#X connect 29 0 21 0;
#X connect 30 0 22 0;
#X connect 31 0 23 0;
#X connect 32 0 24 0;
#X connect 33 0 27 0;
#X connect 33 0 28 0;
#X connect 33 0 29 0;
#X connect 33 0 30 0;
#X connect 33 0 31 0;
#X connect 33 0 32 0;
#X connect 33 0 26 0;
#X connect 33 0 25 0;
#X restore -80 402 pd;
#X obj -107 437 *~;
#X obj 293 455 *~;
#X floatatom -153 325 5 0 0 0 - - -, f 5;
#X obj -142 398 / 100;
#X obj 325 418 / 100;
#X obj -38 438 *~;
#X obj -37 411 line~;
#X obj 414 452 *~;
#X obj 415 425 line~;
#N canvas 835 73 958 988 (subpatch) 0;
#X obj 65 275 *~ 1;
#X obj 160 278 *~ 0.7;
#X obj 245 279 *~ 0.5;
#X obj 332 279 *~ 0.4;
#X obj 424 281 *~ 0.3;
#X obj 515 282 *~ 0.3;
#X obj 606 282 *~ 0.2;
#X obj 695 284 *~ 0.1;
#X obj 151 234 osc~;
#X obj 328 234 osc~;
#X obj 510 235 osc~;
#X obj 689 235 osc~;
#X floatatom 57 206 5 0 0 0 - - -, f 5;
#X floatatom 144 208 5 0 0 0 - - -, f 5;
#X floatatom 235 207 5 0 0 0 - - -, f 5;
#X floatatom 322 209 5 0 0 0 - - -, f 5;
#X floatatom 414 209 5 0 0 0 - - -, f 5;
#X floatatom 506 209 5 0 0 0 - - -, f 5;
#X floatatom 597 211 5 0 0 0 - - -, f 5;
#X floatatom 683 211 5 0 0 0 - - -, f 5;
#X obj 61 176 * 1;
#X obj 150 180 * 2;
#X obj 237 178 * 3;
#X obj 320 180 * 4;
#X obj 414 179 * 5;
#X obj 508 180 * 6;
#X obj 601 181 * 7;
#X obj 688 179 * 8;
#X obj 330 90 inlet;
#X obj 330 466 outlet~;
#X obj 333 377 *~ 0.4;
#X obj 62 233 osc~;
#X obj 239 234 osc~;
#X obj 421 234 osc~;
#X obj 600 234 osc~;
#X connect 0 0 30 0;
#X connect 1 0 30 0;
#X connect 2 0 30 0;
#X connect 3 0 30 0;
#X connect 4 0 30 0;
#X connect 5 0 30 0;
#X connect 6 0 30 0;
#X connect 7 0 30 0;
#X connect 8 0 1 0;
#X connect 9 0 3 0;
#X connect 10 0 5 0;
#X connect 11 0 7 0;
#X connect 12 0 31 0;
#X connect 13 0 8 0;
#X connect 14 0 32 0;
#X connect 15 0 9 0;
#X connect 16 0 33 0;
#X connect 17 0 10 0;
#X connect 18 0 34 0;
#X connect 19 0 11 0;
#X connect 20 0 12 0;
#X connect 21 0 13 0;
#X connect 22 0 14 0;
#X connect 23 0 15 0;
#X connect 24 0 16 0;
#X connect 25 0 17 0;
#X connect 26 0 18 0;
#X connect 27 0 19 0;
#X connect 28 0 20 0;
#X connect 28 0 21 0;
#X connect 28 0 22 0;
#X connect 28 0 23 0;
#X connect 28 0 24 0;
#X connect 28 0 25 0;
#X connect 28 0 26 0;
#X connect 28 0 27 0;
#X connect 30 0 29 0;
#X connect 31 0 0 0;
#X connect 32 0 2 0;
#X connect 33 0 4 0;
#X connect 34 0 6 0;
#X restore 127 409 pd;
#X obj 99 444 *~;
#X obj 67 408 / 100;
#X obj 168 452 *~;
#X obj 169 425 line~;
#X obj 125 491 *~;
#X obj 372 490 *~;
#X obj -89 482 *~;
#X obj 108 617 +~;
#X msg -96 328 440;
#X obj 151 167 delay 100 1 msec;
#X obj 331 198 delay 200 1 msec;
#X msg 262 316 1500;
#N canvas 953 50 958 988 (subpatch) 0;
#X obj 65 275 *~ 1;
#X obj 160 278 *~ 0.7;
#X obj 245 279 *~ 0.5;
#X obj 332 279 *~ 0.4;
#X obj 424 281 *~ 0.3;
#X obj 515 282 *~ 0.3;
#X obj 606 282 *~ 0.2;
#X obj 695 284 *~ 0.1;
#X obj 151 234 osc~;
#X obj 689 235 osc~;
#X floatatom 57 206 5 0 0 0 - - -, f 5;
#X floatatom 144 208 5 0 0 0 - - -, f 5;
#X floatatom 235 207 5 0 0 0 - - -, f 5;
#X floatatom 322 209 5 0 0 0 - - -, f 5;
#X floatatom 414 209 5 0 0 0 - - -, f 5;
#X floatatom 506 209 5 0 0 0 - - -, f 5;
#X floatatom 597 211 5 0 0 0 - - -, f 5;
#X floatatom 683 211 5 0 0 0 - - -, f 5;
#X obj 61 176 * 1;
#X obj 150 180 * 2;
#X obj 237 178 * 3;
#X obj 320 180 * 4;
#X obj 414 179 * 5;
#X obj 508 180 * 6;
#X obj 601 181 * 7;
#X obj 688 179 * 8;
#X obj 330 90 inlet;
#X obj 330 466 outlet~;
#X obj 333 377 *~ 0.4;
#X obj 62 233 osc~;
#X obj 239 234 osc~;
#X obj 328 234 osc~;
#X obj 421 234 osc~;
#X obj 510 235 osc~;
#X obj 600 234 osc~;
#X connect 0 0 28 0;
#X connect 1 0 28 0;
#X connect 2 0 28 0;
#X connect 3 0 28 0;
#X connect 4 0 28 0;
#X connect 5 0 28 0;
#X connect 6 0 28 0;
#X connect 7 0 28 0;
#X connect 8 0 1 0;
#X connect 9 0 7 0;
#X connect 10 0 29 0;
#X connect 11 0 8 0;
#X connect 12 0 30 0;
#X connect 13 0 31 0;
#X connect 14 0 32 0;
#X connect 15 0 33 0;
#X connect 16 0 34 0;
#X connect 17 0 9 0;
#X connect 18 0 10 0;
#X connect 19 0 11 0;
#X connect 20 0 12 0;
#X connect 21 0 13 0;
#X connect 22 0 14 0;
#X connect 23 0 15 0;
#X connect 24 0 16 0;
#X connect 25 0 17 0;
#X connect 26 0 18 0;
#X connect 26 0 19 0;
#X connect 26 0 20 0;
#X connect 26 0 21 0;
#X connect 26 0 22 0;
#X connect 26 0 23 0;
#X connect 26 0 24 0;
#X connect 26 0 25 0;
#X connect 28 0 27 0;
#X connect 29 0 0 0;
#X connect 30 0 2 0;
#X connect 31 0 3 0;
#X connect 32 0 4 0;
#X connect 33 0 5 0;
#X connect 34 0 6 0;
#X restore 475 361 pd;
#X obj 476 416 *~;
#X obj 508 379 / 100;
#X obj 597 413 *~;
#X obj 598 386 line~;
#X obj 555 451 *~;
#X msg 464 341 1800;
#X msg 114 291 999;
#X obj 153 104 bng 15 250 50 0 empty empty empty 17 7 0 10 -262144
-1 -1;
#X msg 58 283 10;
#X msg 321 270 16;
#X msg 530 287 12;
#X floatatom 57 343 5 0 0 0 - - -, f 5;
#X floatatom 318 351 5 0 0 0 - - -, f 5;
#X floatatom 508 338 5 0 0 0 - - -, f 5;
#X obj 141 46 r banger;
#X msg 166 400 1 \, 0 1000;
#X msg 409 398 1 \, 0 700;
#X msg 597 361 1 \, 0 500;
#X msg -37 385 1 \, 0 1200;
#X obj 857 208 hip~ 15000;
#X obj 857 230 hip~ 15000;
#X obj 857 251 hip~ 15000;
#X obj 857 274 hip~ 15000;
#X obj 857 297 lop~ 20000;
#X obj 857 319 lop~ 20000;
#X obj 857 343 lop~ 20000;
#X obj 857 367 lop~ 20000;
#X obj 856 170 noise~;
#X obj 954 674 dac~;
#X obj 1334 242 r smokeVolume;
#X obj 1347 57 r smokebang;
#X obj 1329 99 bng 15 250 50 0 empty empty empty 17 7 0 10 -262144
-1 -1;
#X obj 1309 284 f;
#X obj 901 512 *~;
#X obj 969 399 exp;
#X obj 943 482 sig~;
#X obj 994 351 f;
#X obj 997 279 sel 1;
#X floatatom 1019 392 5 0 0 0 - - -, f 5;
#X obj 972 441 *;
#X msg 1067 318 bang;
#X floatatom 1081 239 5 0 0 0 - - -, f 5;
#X obj 998 210 timer 1 persec;
#X floatatom 1001 484 5 0 0 0 - - -, f 5;
#X obj 1208 134 delay 100;
#X obj 1180 480 f;
#X msg 1214 447 0;
#X msg 1027 112 stop;
#X obj 1233 199 delay 10;
#X obj 976 556 *~;
#X obj 1114 157 metro 100;
#X obj 1100 427 f;
#X obj 1358 395 r stopbang;
#X obj 1293 426 bng 15 250 50 0 empty empty empty 17 7 0 10 -262144
-1 -1;
#X msg 1176 448 1;
#X obj 998 244 < 1000;
#X msg 963 319 0.02;
#X msg 1010 318 -0.1;
#X obj 976 605 *~;
#X obj 1038 564 f;
#X obj 1150 529 r smokeScale;
#X obj 616 234 dac~;
#X obj 616 208 *~;
#X obj 652 186 *~ 10;
#X obj 552 153 hip~ 4000;
#X obj 652 162 lop~ 60;
#X obj 553 118 noise~;
#X obj 653 136 *~;
#X msg 707 144 1;
#X msg 668 115 0;
#X obj 649 97 bng 15 250 50 0 empty empty empty 17 7 0 10 -262144 -1
-1;
#X obj 650 13 r fuse;
#X obj 727 38 bng 15 250 50 0 empty empty empty 17 7 0 10 -262144 -1
-1;
#X obj 619 67 delay 500;
#X obj -558 339 osc~;
#X obj -558 413 *~;
#X obj -591 310 +~ 2000;
#X obj -520 338 *~;
#X obj -520 363 *~;
#X obj -558 517 *~ 0.01;
#X obj -557 539 lop~ 10000;
#X obj -546 231 bp~ 2.064 0.002;
#X obj -519 388 *~;
#X obj -559 447 *~ 0.3;
#X obj -545 254 *~ 3.2;
#X obj -558 472 hip~ 500;
#X obj -557 495 hip~ 500;
#X obj -592 286 *~ 3000;
#X obj -558 562 *~ 0.02;
#X obj -672 339 osc~;
#X obj -542 160 noise~;
#X obj -672 413 *~;
#X obj -634 338 *~;
#X obj -634 363 *~;
#X obj -672 517 *~ 0.01;
#X obj -671 539 lop~ 10000;
#X obj -660 231 bp~ 2.064 0.002;
#X obj -633 388 *~;
#X obj -673 447 *~ 0.3;
#X obj -659 254 *~ 3.2;
#X obj -672 472 hip~ 500;
#X obj -671 495 hip~ 500;
#X obj -706 286 *~ 344;
#X obj -705 310 +~ 3000;
#X obj -672 562 *~ 0.01;
#X obj -552 610 lop~ 12000;
#X obj -552 635 *~;
#X obj -552 660 *~;
#X obj -553 695 dac~;
#X obj -436 231 bp~, f 10;
#X obj -436 261 bp~, f 10;
#X obj -426 643 *~ 0.2;
#X floatatom -289 186 5 0 0 0 - - -, f 5;
#X obj -306 231 bp~, f 10;
#X obj -306 261 bp~, f 10;
#X floatatom -150 197 5 0 0 0 - - -, f 5;
#X obj -166 231 bp~, f 10;
#X obj -166 261 bp~, f 10;
#X obj -497 39 bng 15 250 50 0 empty empty empty 17 7 0 10 -262144
-1 -1;
#X obj -455 103 vline~;
#X obj -455 146 snapshot~;
#X floatatom -418 171 5 0 0 0 - - -, f 5;
#X obj -455 125 *~ 1000;
#X obj -497 115 metro;
#X obj -333 33 bng 15 250 50 0 empty empty empty 17 7 0 10 -262144
-1 -1;
#X obj -295 100 vline~;
#X obj -289 163 snapshot~;
#X obj -294 125 *~ 1000;
#X obj -333 111 metro;
#X obj -333 52 metro 6000;
#X obj -164 38 bng 15 250 50 0 empty empty empty 17 7 0 10 -262144
-1 -1;
#X obj -124 106 vline~;
#X obj -118 169 snapshot~;
#X obj -123 131 *~ 1000;
#X obj -164 118 metro;
#X msg -316 74 0.3 3000 \, 1.3 3000 1500;
#X obj -497 60 metro 12000;
#X msg -480 84 0.5 8000 \, 2 8000 8000;
#X obj -355 7 r snow_wind;
#X obj -164 57 metro 8000;
#X msg -146 80 0.6 4000 \, 1.7 4000 4000;
#X obj -214 156 loadbang;
#X obj -364 152 loadbang;
#X msg -362 181 4;
#X msg -232 190 6;
#X msg -92 212 8;
#X msg -504 652 2;
#X obj -73 192 loadbang;
#X connect 1 0 4 0;
#X connect 2 0 3 1;
#X connect 3 0 19 0;
#X connect 4 0 18 0;
#X connect 5 0 6 0;
#X connect 6 0 3 0;
#X connect 7 0 4 1;
#X connect 8 0 19 1;
#X connect 9 0 8 0;
#X connect 9 0 8 1;
#X connect 10 0 18 1;
#X connect 11 0 10 0;
#X connect 11 0 10 1;
#X connect 12 0 13 1;
#X connect 13 0 17 0;
#X connect 14 0 13 0;
#X connect 15 0 17 1;
#X connect 16 0 15 0;
#X connect 16 0 15 1;
#X connect 17 0 20 0;
#X connect 18 0 20 0;
#X connect 19 0 20 0;
#X connect 20 0 0 0;
#X connect 20 0 0 1;
#X connect 21 0 2 0;
#X connect 22 0 41 0;
#X connect 22 0 32 0;
#X connect 23 0 24 0;
#X connect 23 0 42 0;
#X connect 23 0 31 0;
#X connect 23 0 43 0;
#X connect 24 0 1 0;
#X connect 25 0 26 0;
#X connect 26 0 30 0;
#X connect 27 0 26 1;
#X connect 28 0 30 1;
#X connect 29 0 28 0;
#X connect 29 0 28 1;
#X connect 30 0 20 0;
#X connect 31 0 25 0;
#X connect 32 0 12 0;
#X connect 33 0 21 0;
#X connect 33 0 22 0;
#X connect 33 0 23 0;
#X connect 33 0 44 0;
#X connect 33 0 34 0;
#X connect 33 0 35 0;
#X connect 33 0 36 0;
#X connect 34 0 37 0;
#X connect 35 0 38 0;
#X connect 36 0 39 0;
#X connect 37 0 14 0;
#X connect 38 0 7 0;
#X connect 39 0 27 0;
#X connect 40 0 33 0;
#X connect 41 0 16 0;
#X connect 42 0 11 0;
#X connect 43 0 29 0;
#X connect 44 0 9 0;
#X connect 45 0 46 0;
#X connect 46 0 47 0;
#X connect 47 0 48 0;
#X connect 48 0 49 0;
#X connect 49 0 50 0;
#X connect 50 0 51 0;
#X connect 51 0 52 0;
#X connect 52 0 59 0;
#X connect 53 0 45 0;
#X connect 55 0 58 1;
#X connect 56 0 57 0;
#X connect 57 0 58 0;
#X connect 57 0 70 0;
#X connect 57 0 74 0;
#X connect 57 0 80 0;
#X connect 58 0 77 1;
#X connect 59 0 75 0;
#X connect 60 0 65 0;
#X connect 61 0 59 1;
#X connect 62 0 60 0;
#X connect 62 0 64 0;
#X connect 63 0 66 0;
#X connect 63 0 82 0;
#X connect 63 1 66 0;
#X connect 63 1 83 0;
#X connect 65 0 61 0;
#X connect 65 0 69 0;
#X connect 65 0 77 1;
#X connect 66 0 77 0;
#X connect 68 0 67 0;
#X connect 68 0 81 0;
#X connect 70 0 68 0;
#X connect 70 0 76 0;
#X connect 71 0 75 1;
#X connect 72 0 71 0;
#X connect 73 0 76 0;
#X connect 74 0 77 0;
#X connect 75 0 84 0;
#X connect 76 0 68 1;
#X connect 77 0 65 1;
#X connect 78 0 79 0;
#X connect 79 0 72 0;
#X connect 79 0 73 0;
#X connect 80 0 71 0;
#X connect 81 0 63 0;
#X connect 82 0 62 0;
#X connect 83 0 62 0;
#X connect 84 0 54 0;
#X connect 84 0 54 1;
#X connect 85 0 84 1;
#X connect 86 0 85 0;
#X connect 88 0 87 0;
#X connect 88 0 87 1;
#X connect 89 0 88 1;
#X connect 90 0 88 0;
#X connect 91 0 89 0;
#X connect 92 0 93 0;
#X connect 93 0 90 0;
#X connect 93 0 91 0;
#X connect 94 0 93 1;
#X connect 95 0 93 1;
#X connect 96 0 95 0;
#X connect 97 0 98 0;
#X connect 98 0 94 0;
#X connect 98 0 99 0;
#X connect 99 0 96 0;
#X connect 100 0 101 0;
#X connect 101 0 109 0;
#X connect 102 0 100 0;
#X connect 103 0 104 0;
#X connect 103 0 104 1;
#X connect 104 0 108 0;
#X connect 104 0 108 1;
#X connect 105 0 106 0;
#X connect 106 0 114 0;
#X connect 107 0 110 0;
#X connect 108 0 101 1;
#X connect 109 0 111 0;
#X connect 110 0 103 0;
#X connect 110 0 103 1;
#X connect 110 0 113 0;
#X connect 111 0 112 0;
#X connect 112 0 105 0;
#X connect 113 0 102 0;
#X connect 114 0 131 0;
#X connect 115 0 117 0;
#X connect 116 0 122 0;
#X connect 116 0 107 0;
#X connect 116 0 135 0;
#X connect 116 0 139 0;
#X connect 116 0 142 0;
#X connect 117 0 124 0;
#X connect 118 0 119 0;
#X connect 118 0 119 1;
#X connect 119 0 123 0;
#X connect 119 0 123 1;
#X connect 120 0 121 0;
#X connect 121 0 130 0;
#X connect 122 0 125 0;
#X connect 123 0 117 1;
#X connect 124 0 126 0;
#X connect 125 0 118 0;
#X connect 125 0 118 1;
#X connect 125 0 128 0;
#X connect 126 0 127 0;
#X connect 127 0 120 0;
#X connect 128 0 129 0;
#X connect 129 0 115 0;
#X connect 130 0 131 0;
#X connect 131 0 132 0;
#X connect 132 0 133 0;
#X connect 133 0 134 0;
#X connect 133 0 134 1;
#X connect 135 0 136 0;
#X connect 136 0 137 0;
#X connect 137 0 134 0;
#X connect 137 0 134 1;
#X connect 138 0 139 1;
#X connect 138 0 140 1;
#X connect 139 0 140 0;
#X connect 140 0 137 0;
#X connect 141 0 142 1;
#X connect 141 0 143 1;
#X connect 142 0 143 0;
#X connect 143 0 137 0;
#X connect 144 0 162 0;
#X connect 145 0 148 0;
#X connect 146 0 147 0;
#X connect 147 0 135 1;
#X connect 147 0 136 1;
#X connect 148 0 146 0;
#X connect 149 0 146 0;
#X connect 150 0 155 0;
#X connect 151 0 153 0;
#X connect 152 0 138 0;
#X connect 153 0 152 0;
#X connect 154 0 152 0;
#X connect 155 0 154 0;
#X connect 155 0 161 0;
#X connect 156 0 165 0;
#X connect 157 0 159 0;
#X connect 158 0 141 0;
#X connect 159 0 158 0;
#X connect 160 0 158 0;
#X connect 161 0 151 0;
#X connect 162 0 149 0;
#X connect 162 0 163 0;
#X connect 163 0 145 0;
#X connect 164 0 144 0;
#X connect 164 0 150 0;
#X connect 164 0 156 0;
#X connect 164 0 172 0;
#X connect 165 0 160 0;
#X connect 165 0 166 0;
#X connect 166 0 157 0;
#X connect 167 0 170 0;
#X connect 168 0 169 0;
#X connect 169 0 135 2;
#X connect 169 0 136 2;
#X connect 170 0 140 2;
#X connect 170 0 139 2;
#X connect 171 0 142 2;
#X connect 172 0 132 1;
#X connect 172 0 133 1;
#X connect 173 0 171 0;
