#N canvas 0 50 958 988 10;
#X obj 100 663 dac~;
#N canvas 953 50 958 988 (subpatch) 0;
#X obj 65 275 *~ 1;
#X obj 160 278 *~ 0.7;
#X obj 245 279 *~ 0.5;
#X obj 332 279 *~ 0.4;
#X obj 424 281 *~ 0.3;
#X obj 515 282 *~ 0.3;
#X obj 606 282 *~ 0.2;
#X obj 695 284 *~ 0.1;
#X obj 151 234 osc~;
#X obj 689 235 osc~;
#X floatatom 57 206 5 0 0 0 - - -, f 5;
#X floatatom 144 208 5 0 0 0 - - -, f 5;
#X floatatom 235 207 5 0 0 0 - - -, f 5;
#X floatatom 322 209 5 0 0 0 - - -, f 5;
#X floatatom 414 209 5 0 0 0 - - -, f 5;
#X floatatom 506 209 5 0 0 0 - - -, f 5;
#X floatatom 597 211 5 0 0 0 - - -, f 5;
#X floatatom 683 211 5 0 0 0 - - -, f 5;
#X obj 61 176 * 1;
#X obj 150 180 * 2;
#X obj 237 178 * 3;
#X obj 320 180 * 4;
#X obj 414 179 * 5;
#X obj 508 180 * 6;
#X obj 601 181 * 7;
#X obj 688 179 * 8;
#X obj 330 90 inlet;
#X obj 330 466 outlet~;
#X obj 333 377 *~ 0.4;
#X obj 62 233 osc~;
#X obj 239 234 osc~;
#X obj 328 234 osc~;
#X obj 421 234 osc~;
#X obj 510 235 osc~;
#X obj 600 234 osc~;
#X connect 0 0 28 0;
#X connect 1 0 28 0;
#X connect 2 0 28 0;
#X connect 3 0 28 0;
#X connect 4 0 28 0;
#X connect 5 0 28 0;
#X connect 6 0 28 0;
#X connect 7 0 28 0;
#X connect 8 0 1 0;
#X connect 9 0 7 0;
#X connect 10 0 29 0;
#X connect 11 0 8 0;
#X connect 12 0 30 0;
#X connect 13 0 31 0;
#X connect 14 0 32 0;
#X connect 15 0 33 0;
#X connect 16 0 34 0;
#X connect 17 0 9 0;
#X connect 18 0 10 0;
#X connect 19 0 11 0;
#X connect 20 0 12 0;
#X connect 21 0 13 0;
#X connect 22 0 14 0;
#X connect 23 0 15 0;
#X connect 24 0 16 0;
#X connect 25 0 17 0;
#X connect 26 0 18 0;
#X connect 26 0 19 0;
#X connect 26 0 20 0;
#X connect 26 0 21 0;
#X connect 26 0 22 0;
#X connect 26 0 23 0;
#X connect 26 0 24 0;
#X connect 26 0 25 0;
#X connect 28 0 27 0;
#X connect 29 0 0 0;
#X connect 30 0 2 0;
#X connect 31 0 3 0;
#X connect 32 0 4 0;
#X connect 33 0 5 0;
#X connect 34 0 6 0;
#X restore 292 400 pd;
#N canvas 953 50 958 988 (subpatch) 0;
#X obj 65 275 *~ 1;
#X obj 160 278 *~ 0.7;
#X obj 245 279 *~ 0.5;
#X obj 332 279 *~ 0.4;
#X obj 424 281 *~ 0.3;
#X obj 515 282 *~ 0.3;
#X obj 606 282 *~ 0.2;
#X obj 695 284 *~ 0.1;
#X obj 333 377 *~ 0.4;
#X obj 62 233 osc~;
#X obj 151 234 osc~;
#X obj 239 234 osc~;
#X obj 328 234 osc~;
#X obj 420 234 osc~;
#X obj 510 235 osc~;
#X obj 600 234 osc~;
#X obj 689 235 osc~;
#X floatatom 57 206 5 0 0 0 - - -, f 5;
#X floatatom 144 208 5 0 0 0 - - -, f 5;
#X floatatom 235 207 5 0 0 0 - - -, f 5;
#X floatatom 322 209 5 0 0 0 - - -, f 5;
#X floatatom 414 209 5 0 0 0 - - -, f 5;
#X floatatom 506 209 5 0 0 0 - - -, f 5;
#X floatatom 597 211 5 0 0 0 - - -, f 5;
#X floatatom 683 211 5 0 0 0 - - -, f 5;
#X obj 61 176 * 1;
#X obj 150 180 * 2;
#X obj 237 178 * 3;
#X obj 320 180 * 4;
#X obj 414 179 * 5;
#X obj 508 180 * 6;
#X obj 601 181 * 7;
#X obj 688 179 * 8;
#X obj 330 90 inlet;
#X obj 330 466 outlet~;
#X connect 0 0 8 0;
#X connect 1 0 8 0;
#X connect 2 0 8 0;
#X connect 3 0 8 0;
#X connect 4 0 8 0;
#X connect 5 0 8 0;
#X connect 6 0 8 0;
#X connect 7 0 8 0;
#X connect 8 0 34 0;
#X connect 9 0 0 0;
#X connect 10 0 1 0;
#X connect 11 0 2 0;
#X connect 12 0 3 0;
#X connect 13 0 4 0;
#X connect 14 0 5 0;
#X connect 15 0 6 0;
#X connect 16 0 7 0;
#X connect 17 0 9 0;
#X connect 18 0 10 0;
#X connect 19 0 11 0;
#X connect 20 0 12 0;
#X connect 21 0 13 0;
#X connect 22 0 14 0;
#X connect 23 0 15 0;
#X connect 24 0 16 0;
#X connect 25 0 17 0;
#X connect 26 0 18 0;
#X connect 27 0 19 0;
#X connect 28 0 20 0;
#X connect 29 0 21 0;
#X connect 30 0 22 0;
#X connect 31 0 23 0;
#X connect 32 0 24 0;
#X connect 33 0 27 0;
#X connect 33 0 28 0;
#X connect 33 0 29 0;
#X connect 33 0 30 0;
#X connect 33 0 31 0;
#X connect 33 0 32 0;
#X connect 33 0 26 0;
#X connect 33 0 25 0;
#X restore -80 402 pd;
#X obj -107 437 *~;
#X obj 293 455 *~;
#X floatatom -153 325 5 0 0 0 - - -, f 5;
#X obj -142 398 / 100;
#X obj 325 418 / 100;
#X obj -38 438 *~;
#X obj -37 411 line~;
#X obj 414 452 *~;
#X obj 415 425 line~;
#N canvas 835 73 958 988 (subpatch) 0;
#X obj 65 275 *~ 1;
#X obj 160 278 *~ 0.7;
#X obj 245 279 *~ 0.5;
#X obj 332 279 *~ 0.4;
#X obj 424 281 *~ 0.3;
#X obj 515 282 *~ 0.3;
#X obj 606 282 *~ 0.2;
#X obj 695 284 *~ 0.1;
#X obj 151 234 osc~;
#X obj 328 234 osc~;
#X obj 510 235 osc~;
#X obj 689 235 osc~;
#X floatatom 57 206 5 0 0 0 - - -, f 5;
#X floatatom 144 208 5 0 0 0 - - -, f 5;
#X floatatom 235 207 5 0 0 0 - - -, f 5;
#X floatatom 322 209 5 0 0 0 - - -, f 5;
#X floatatom 414 209 5 0 0 0 - - -, f 5;
#X floatatom 506 209 5 0 0 0 - - -, f 5;
#X floatatom 597 211 5 0 0 0 - - -, f 5;
#X floatatom 683 211 5 0 0 0 - - -, f 5;
#X obj 61 176 * 1;
#X obj 150 180 * 2;
#X obj 237 178 * 3;
#X obj 320 180 * 4;
#X obj 414 179 * 5;
#X obj 508 180 * 6;
#X obj 601 181 * 7;
#X obj 688 179 * 8;
#X obj 330 90 inlet;
#X obj 330 466 outlet~;
#X obj 333 377 *~ 0.4;
#X obj 62 233 osc~;
#X obj 239 234 osc~;
#X obj 421 234 osc~;
#X obj 600 234 osc~;
#X connect 0 0 30 0;
#X connect 1 0 30 0;
#X connect 2 0 30 0;
#X connect 3 0 30 0;
#X connect 4 0 30 0;
#X connect 5 0 30 0;
#X connect 6 0 30 0;
#X connect 7 0 30 0;
#X connect 8 0 1 0;
#X connect 9 0 3 0;
#X connect 10 0 5 0;
#X connect 11 0 7 0;
#X connect 12 0 31 0;
#X connect 13 0 8 0;
#X connect 14 0 32 0;
#X connect 15 0 9 0;
#X connect 16 0 33 0;
#X connect 17 0 10 0;
#X connect 18 0 34 0;
#X connect 19 0 11 0;
#X connect 20 0 12 0;
#X connect 21 0 13 0;
#X connect 22 0 14 0;
#X connect 23 0 15 0;
#X connect 24 0 16 0;
#X connect 25 0 17 0;
#X connect 26 0 18 0;
#X connect 27 0 19 0;
#X connect 28 0 20 0;
#X connect 28 0 21 0;
#X connect 28 0 22 0;
#X connect 28 0 23 0;
#X connect 28 0 24 0;
#X connect 28 0 25 0;
#X connect 28 0 26 0;
#X connect 28 0 27 0;
#X connect 30 0 29 0;
#X connect 31 0 0 0;
#X connect 32 0 2 0;
#X connect 33 0 4 0;
#X connect 34 0 6 0;
#X restore 127 409 pd;
#X obj 99 444 *~;
#X obj 67 408 / 100;
#X obj 168 452 *~;
#X obj 169 425 line~;
#X obj 125 491 *~;
#X obj 372 490 *~;
#X obj -89 482 *~;
#X obj 108 617 +~;
#X msg -96 328 440;
#X obj 151 167 delay 100 1 msec;
#X obj 331 198 delay 200 1 msec;
#X msg 262 316 1500;
#N canvas 953 50 958 988 (subpatch) 0;
#X obj 65 275 *~ 1;
#X obj 160 278 *~ 0.7;
#X obj 245 279 *~ 0.5;
#X obj 332 279 *~ 0.4;
#X obj 424 281 *~ 0.3;
#X obj 515 282 *~ 0.3;
#X obj 606 282 *~ 0.2;
#X obj 695 284 *~ 0.1;
#X obj 151 234 osc~;
#X obj 689 235 osc~;
#X floatatom 57 206 5 0 0 0 - - -, f 5;
#X floatatom 144 208 5 0 0 0 - - -, f 5;
#X floatatom 235 207 5 0 0 0 - - -, f 5;
#X floatatom 322 209 5 0 0 0 - - -, f 5;
#X floatatom 414 209 5 0 0 0 - - -, f 5;
#X floatatom 506 209 5 0 0 0 - - -, f 5;
#X floatatom 597 211 5 0 0 0 - - -, f 5;
#X floatatom 683 211 5 0 0 0 - - -, f 5;
#X obj 61 176 * 1;
#X obj 150 180 * 2;
#X obj 237 178 * 3;
#X obj 320 180 * 4;
#X obj 414 179 * 5;
#X obj 508 180 * 6;
#X obj 601 181 * 7;
#X obj 688 179 * 8;
#X obj 330 90 inlet;
#X obj 330 466 outlet~;
#X obj 333 377 *~ 0.4;
#X obj 62 233 osc~;
#X obj 239 234 osc~;
#X obj 328 234 osc~;
#X obj 421 234 osc~;
#X obj 510 235 osc~;
#X obj 600 234 osc~;
#X connect 0 0 28 0;
#X connect 1 0 28 0;
#X connect 2 0 28 0;
#X connect 3 0 28 0;
#X connect 4 0 28 0;
#X connect 5 0 28 0;
#X connect 6 0 28 0;
#X connect 7 0 28 0;
#X connect 8 0 1 0;
#X connect 9 0 7 0;
#X connect 10 0 29 0;
#X connect 11 0 8 0;
#X connect 12 0 30 0;
#X connect 13 0 31 0;
#X connect 14 0 32 0;
#X connect 15 0 33 0;
#X connect 16 0 34 0;
#X connect 17 0 9 0;
#X connect 18 0 10 0;
#X connect 19 0 11 0;
#X connect 20 0 12 0;
#X connect 21 0 13 0;
#X connect 22 0 14 0;
#X connect 23 0 15 0;
#X connect 24 0 16 0;
#X connect 25 0 17 0;
#X connect 26 0 18 0;
#X connect 26 0 19 0;
#X connect 26 0 20 0;
#X connect 26 0 21 0;
#X connect 26 0 22 0;
#X connect 26 0 23 0;
#X connect 26 0 24 0;
#X connect 26 0 25 0;
#X connect 28 0 27 0;
#X connect 29 0 0 0;
#X connect 30 0 2 0;
#X connect 31 0 3 0;
#X connect 32 0 4 0;
#X connect 33 0 5 0;
#X connect 34 0 6 0;
#X restore 475 361 pd;
#X obj 476 416 *~;
#X obj 508 379 / 100;
#X obj 597 413 *~;
#X obj 598 386 line~;
#X obj 555 451 *~;
#X msg 464 341 1800;
#X msg 114 291 999;
#X obj 153 104 bng 15 250 50 0 empty empty empty 17 7 0 10 -262144
-1 -1;
#X msg 58 283 10;
#X msg 321 270 16;
#X msg 530 287 12;
#X floatatom 57 343 5 0 0 0 - - -, f 5;
#X floatatom 318 351 5 0 0 0 - - -, f 5;
#X floatatom 508 338 5 0 0 0 - - -, f 5;
#X obj 141 46 r banger;
#X msg 166 400 1 \, 0 1000;
#X msg 409 398 1 \, 0 700;
#X msg 597 361 1 \, 0 500;
#X msg -37 385 1 \, 0 1200;
#X obj 483 598 hip~ 15000;
#X obj 483 620 hip~ 15000;
#X obj 483 641 hip~ 15000;
#X obj 483 664 hip~ 15000;
#X obj 483 687 lop~ 20000;
#X obj 483 709 lop~ 20000;
#X obj 483 733 lop~ 20000;
#X obj 483 757 lop~ 20000;
#X obj 467 804 *~;
#X obj 482 560 noise~;
#X obj 458 896 dac~;
#X obj 468 847 *~;
#X obj 611 726 bng 15 250 50 0 empty empty empty 17 7 0 10 -262144
-1 -1;
#X obj 601 774 ead~;
#X obj 584 662 r smokebang;
#X obj 671 664 r smokeAttack;
#X obj 775 664 r smokeDecay;
#X obj 363 735 r smokeVolume;
#X obj 648 713 f;
#X obj 726 735 f;
#X obj 401 766 f;
#X connect 1 0 4 0;
#X connect 2 0 3 1;
#X connect 3 0 19 0;
#X connect 4 0 18 0;
#X connect 5 0 6 0;
#X connect 6 0 3 0;
#X connect 7 0 4 1;
#X connect 8 0 19 1;
#X connect 9 0 8 0;
#X connect 9 0 8 1;
#X connect 10 0 18 1;
#X connect 11 0 10 0;
#X connect 11 0 10 1;
#X connect 12 0 13 1;
#X connect 13 0 17 0;
#X connect 14 0 13 0;
#X connect 15 0 17 1;
#X connect 16 0 15 0;
#X connect 16 0 15 1;
#X connect 17 0 20 0;
#X connect 18 0 20 0;
#X connect 19 0 20 0;
#X connect 20 0 0 0;
#X connect 20 0 0 1;
#X connect 21 0 2 0;
#X connect 22 0 41 0;
#X connect 22 0 32 0;
#X connect 23 0 24 0;
#X connect 23 0 42 0;
#X connect 23 0 31 0;
#X connect 23 0 43 0;
#X connect 24 0 1 0;
#X connect 25 0 26 0;
#X connect 26 0 30 0;
#X connect 27 0 26 1;
#X connect 28 0 30 1;
#X connect 29 0 28 0;
#X connect 29 0 28 1;
#X connect 30 0 20 0;
#X connect 31 0 25 0;
#X connect 32 0 12 0;
#X connect 33 0 21 0;
#X connect 33 0 22 0;
#X connect 33 0 23 0;
#X connect 33 0 44 0;
#X connect 33 0 34 0;
#X connect 33 0 35 0;
#X connect 33 0 36 0;
#X connect 34 0 37 0;
#X connect 35 0 38 0;
#X connect 36 0 39 0;
#X connect 37 0 14 0;
#X connect 38 0 7 0;
#X connect 39 0 27 0;
#X connect 40 0 33 0;
#X connect 41 0 16 0;
#X connect 42 0 11 0;
#X connect 43 0 29 0;
#X connect 44 0 9 0;
#X connect 45 0 46 0;
#X connect 46 0 47 0;
#X connect 47 0 48 0;
#X connect 48 0 49 0;
#X connect 49 0 50 0;
#X connect 50 0 51 0;
#X connect 51 0 52 0;
#X connect 52 0 53 1;
#X connect 53 0 56 0;
#X connect 54 0 45 0;
#X connect 56 0 55 0;
#X connect 56 0 55 1;
#X connect 57 0 58 0;
#X connect 58 0 56 1;
#X connect 59 0 57 0;
#X connect 60 0 63 0;
#X connect 61 0 64 0;
#X connect 62 0 65 0;
#X connect 63 0 58 1;
#X connect 64 0 58 2;
#X connect 65 0 53 0;
