#N canvas 0 50 1536 781 10;
#X obj 100 663 dac~;
#N canvas 953 50 958 988 (subpatch) 0;
#X obj 65 275 *~ 1;
#X obj 160 278 *~ 0.7;
#X obj 245 279 *~ 0.5;
#X obj 332 279 *~ 0.4;
#X obj 424 281 *~ 0.3;
#X obj 515 282 *~ 0.3;
#X obj 606 282 *~ 0.2;
#X obj 695 284 *~ 0.1;
#X obj 151 234 osc~;
#X obj 689 235 osc~;
#X floatatom 57 206 5 0 0 0 - - -, f 5;
#X floatatom 144 208 5 0 0 0 - - -, f 5;
#X floatatom 235 207 5 0 0 0 - - -, f 5;
#X floatatom 322 209 5 0 0 0 - - -, f 5;
#X floatatom 414 209 5 0 0 0 - - -, f 5;
#X floatatom 506 209 5 0 0 0 - - -, f 5;
#X floatatom 597 211 5 0 0 0 - - -, f 5;
#X floatatom 683 211 5 0 0 0 - - -, f 5;
#X obj 61 176 * 1;
#X obj 150 180 * 2;
#X obj 237 178 * 3;
#X obj 320 180 * 4;
#X obj 414 179 * 5;
#X obj 508 180 * 6;
#X obj 601 181 * 7;
#X obj 688 179 * 8;
#X obj 330 90 inlet;
#X obj 330 466 outlet~;
#X obj 333 377 *~ 0.4;
#X obj 62 233 osc~;
#X obj 239 234 osc~;
#X obj 328 234 osc~;
#X obj 421 234 osc~;
#X obj 510 235 osc~;
#X obj 600 234 osc~;
#X connect 0 0 28 0;
#X connect 1 0 28 0;
#X connect 2 0 28 0;
#X connect 3 0 28 0;
#X connect 4 0 28 0;
#X connect 5 0 28 0;
#X connect 6 0 28 0;
#X connect 7 0 28 0;
#X connect 8 0 1 0;
#X connect 9 0 7 0;
#X connect 10 0 29 0;
#X connect 11 0 8 0;
#X connect 12 0 30 0;
#X connect 13 0 31 0;
#X connect 14 0 32 0;
#X connect 15 0 33 0;
#X connect 16 0 34 0;
#X connect 17 0 9 0;
#X connect 18 0 10 0;
#X connect 19 0 11 0;
#X connect 20 0 12 0;
#X connect 21 0 13 0;
#X connect 22 0 14 0;
#X connect 23 0 15 0;
#X connect 24 0 16 0;
#X connect 25 0 17 0;
#X connect 26 0 18 0;
#X connect 26 0 19 0;
#X connect 26 0 20 0;
#X connect 26 0 21 0;
#X connect 26 0 22 0;
#X connect 26 0 23 0;
#X connect 26 0 24 0;
#X connect 26 0 25 0;
#X connect 28 0 27 0;
#X connect 29 0 0 0;
#X connect 30 0 2 0;
#X connect 31 0 3 0;
#X connect 32 0 4 0;
#X connect 33 0 5 0;
#X connect 34 0 6 0;
#X restore 292 400 pd;
#N canvas 953 50 958 988 (subpatch) 0;
#X obj 65 275 *~ 1;
#X obj 160 278 *~ 0.7;
#X obj 245 279 *~ 0.5;
#X obj 332 279 *~ 0.4;
#X obj 424 281 *~ 0.3;
#X obj 515 282 *~ 0.3;
#X obj 606 282 *~ 0.2;
#X obj 695 284 *~ 0.1;
#X obj 333 377 *~ 0.4;
#X obj 62 233 osc~;
#X obj 151 234 osc~;
#X obj 239 234 osc~;
#X obj 328 234 osc~;
#X obj 420 234 osc~;
#X obj 510 235 osc~;
#X obj 600 234 osc~;
#X obj 689 235 osc~;
#X floatatom 57 206 5 0 0 0 - - -, f 5;
#X floatatom 144 208 5 0 0 0 - - -, f 5;
#X floatatom 235 207 5 0 0 0 - - -, f 5;
#X floatatom 322 209 5 0 0 0 - - -, f 5;
#X floatatom 414 209 5 0 0 0 - - -, f 5;
#X floatatom 506 209 5 0 0 0 - - -, f 5;
#X floatatom 597 211 5 0 0 0 - - -, f 5;
#X floatatom 683 211 5 0 0 0 - - -, f 5;
#X obj 61 176 * 1;
#X obj 150 180 * 2;
#X obj 237 178 * 3;
#X obj 320 180 * 4;
#X obj 414 179 * 5;
#X obj 508 180 * 6;
#X obj 601 181 * 7;
#X obj 688 179 * 8;
#X obj 330 90 inlet;
#X obj 330 466 outlet~;
#X connect 0 0 8 0;
#X connect 1 0 8 0;
#X connect 2 0 8 0;
#X connect 3 0 8 0;
#X connect 4 0 8 0;
#X connect 5 0 8 0;
#X connect 6 0 8 0;
#X connect 7 0 8 0;
#X connect 8 0 34 0;
#X connect 9 0 0 0;
#X connect 10 0 1 0;
#X connect 11 0 2 0;
#X connect 12 0 3 0;
#X connect 13 0 4 0;
#X connect 14 0 5 0;
#X connect 15 0 6 0;
#X connect 16 0 7 0;
#X connect 17 0 9 0;
#X connect 18 0 10 0;
#X connect 19 0 11 0;
#X connect 20 0 12 0;
#X connect 21 0 13 0;
#X connect 22 0 14 0;
#X connect 23 0 15 0;
#X connect 24 0 16 0;
#X connect 25 0 17 0;
#X connect 26 0 18 0;
#X connect 27 0 19 0;
#X connect 28 0 20 0;
#X connect 29 0 21 0;
#X connect 30 0 22 0;
#X connect 31 0 23 0;
#X connect 32 0 24 0;
#X connect 33 0 27 0;
#X connect 33 0 28 0;
#X connect 33 0 29 0;
#X connect 33 0 30 0;
#X connect 33 0 31 0;
#X connect 33 0 32 0;
#X connect 33 0 26 0;
#X connect 33 0 25 0;
#X restore -80 402 pd;
#X obj -107 437 *~;
#X obj 293 455 *~;
#X floatatom -153 325 5 0 0 0 - - -, f 5;
#X obj -142 398 / 100;
#X obj 325 418 / 100;
#X obj -38 438 *~;
#X obj -37 411 line~;
#X obj 414 452 *~;
#X obj 415 425 line~;
#N canvas 835 73 958 988 (subpatch) 0;
#X obj 65 275 *~ 1;
#X obj 160 278 *~ 0.7;
#X obj 245 279 *~ 0.5;
#X obj 332 279 *~ 0.4;
#X obj 424 281 *~ 0.3;
#X obj 515 282 *~ 0.3;
#X obj 606 282 *~ 0.2;
#X obj 695 284 *~ 0.1;
#X obj 151 234 osc~;
#X obj 328 234 osc~;
#X obj 510 235 osc~;
#X obj 689 235 osc~;
#X floatatom 57 206 5 0 0 0 - - -, f 5;
#X floatatom 144 208 5 0 0 0 - - -, f 5;
#X floatatom 235 207 5 0 0 0 - - -, f 5;
#X floatatom 322 209 5 0 0 0 - - -, f 5;
#X floatatom 414 209 5 0 0 0 - - -, f 5;
#X floatatom 506 209 5 0 0 0 - - -, f 5;
#X floatatom 597 211 5 0 0 0 - - -, f 5;
#X floatatom 683 211 5 0 0 0 - - -, f 5;
#X obj 61 176 * 1;
#X obj 150 180 * 2;
#X obj 237 178 * 3;
#X obj 320 180 * 4;
#X obj 414 179 * 5;
#X obj 508 180 * 6;
#X obj 601 181 * 7;
#X obj 688 179 * 8;
#X obj 330 90 inlet;
#X obj 330 466 outlet~;
#X obj 333 377 *~ 0.4;
#X obj 62 233 osc~;
#X obj 239 234 osc~;
#X obj 421 234 osc~;
#X obj 600 234 osc~;
#X connect 0 0 30 0;
#X connect 1 0 30 0;
#X connect 2 0 30 0;
#X connect 3 0 30 0;
#X connect 4 0 30 0;
#X connect 5 0 30 0;
#X connect 6 0 30 0;
#X connect 7 0 30 0;
#X connect 8 0 1 0;
#X connect 9 0 3 0;
#X connect 10 0 5 0;
#X connect 11 0 7 0;
#X connect 12 0 31 0;
#X connect 13 0 8 0;
#X connect 14 0 32 0;
#X connect 15 0 9 0;
#X connect 16 0 33 0;
#X connect 17 0 10 0;
#X connect 18 0 34 0;
#X connect 19 0 11 0;
#X connect 20 0 12 0;
#X connect 21 0 13 0;
#X connect 22 0 14 0;
#X connect 23 0 15 0;
#X connect 24 0 16 0;
#X connect 25 0 17 0;
#X connect 26 0 18 0;
#X connect 27 0 19 0;
#X connect 28 0 20 0;
#X connect 28 0 21 0;
#X connect 28 0 22 0;
#X connect 28 0 23 0;
#X connect 28 0 24 0;
#X connect 28 0 25 0;
#X connect 28 0 26 0;
#X connect 28 0 27 0;
#X connect 30 0 29 0;
#X connect 31 0 0 0;
#X connect 32 0 2 0;
#X connect 33 0 4 0;
#X connect 34 0 6 0;
#X restore 127 409 pd;
#X obj 99 444 *~;
#X obj 67 408 / 100;
#X obj 168 452 *~;
#X obj 169 425 line~;
#X obj 125 491 *~;
#X obj 372 490 *~;
#X obj -89 482 *~;
#X obj 108 617 +~;
#X msg -96 328 440;
#X obj 151 167 delay 100 1 msec;
#X obj 331 198 delay 200 1 msec;
#X msg 262 316 1500;
#N canvas 953 50 958 988 (subpatch) 0;
#X obj 65 275 *~ 1;
#X obj 160 278 *~ 0.7;
#X obj 245 279 *~ 0.5;
#X obj 332 279 *~ 0.4;
#X obj 424 281 *~ 0.3;
#X obj 515 282 *~ 0.3;
#X obj 606 282 *~ 0.2;
#X obj 695 284 *~ 0.1;
#X obj 151 234 osc~;
#X obj 689 235 osc~;
#X floatatom 57 206 5 0 0 0 - - -, f 5;
#X floatatom 144 208 5 0 0 0 - - -, f 5;
#X floatatom 235 207 5 0 0 0 - - -, f 5;
#X floatatom 322 209 5 0 0 0 - - -, f 5;
#X floatatom 414 209 5 0 0 0 - - -, f 5;
#X floatatom 506 209 5 0 0 0 - - -, f 5;
#X floatatom 597 211 5 0 0 0 - - -, f 5;
#X floatatom 683 211 5 0 0 0 - - -, f 5;
#X obj 61 176 * 1;
#X obj 150 180 * 2;
#X obj 237 178 * 3;
#X obj 320 180 * 4;
#X obj 414 179 * 5;
#X obj 508 180 * 6;
#X obj 601 181 * 7;
#X obj 688 179 * 8;
#X obj 330 90 inlet;
#X obj 330 466 outlet~;
#X obj 333 377 *~ 0.4;
#X obj 62 233 osc~;
#X obj 239 234 osc~;
#X obj 328 234 osc~;
#X obj 421 234 osc~;
#X obj 510 235 osc~;
#X obj 600 234 osc~;
#X connect 0 0 28 0;
#X connect 1 0 28 0;
#X connect 2 0 28 0;
#X connect 3 0 28 0;
#X connect 4 0 28 0;
#X connect 5 0 28 0;
#X connect 6 0 28 0;
#X connect 7 0 28 0;
#X connect 8 0 1 0;
#X connect 9 0 7 0;
#X connect 10 0 29 0;
#X connect 11 0 8 0;
#X connect 12 0 30 0;
#X connect 13 0 31 0;
#X connect 14 0 32 0;
#X connect 15 0 33 0;
#X connect 16 0 34 0;
#X connect 17 0 9 0;
#X connect 18 0 10 0;
#X connect 19 0 11 0;
#X connect 20 0 12 0;
#X connect 21 0 13 0;
#X connect 22 0 14 0;
#X connect 23 0 15 0;
#X connect 24 0 16 0;
#X connect 25 0 17 0;
#X connect 26 0 18 0;
#X connect 26 0 19 0;
#X connect 26 0 20 0;
#X connect 26 0 21 0;
#X connect 26 0 22 0;
#X connect 26 0 23 0;
#X connect 26 0 24 0;
#X connect 26 0 25 0;
#X connect 28 0 27 0;
#X connect 29 0 0 0;
#X connect 30 0 2 0;
#X connect 31 0 3 0;
#X connect 32 0 4 0;
#X connect 33 0 5 0;
#X connect 34 0 6 0;
#X restore 475 361 pd;
#X obj 476 416 *~;
#X obj 508 379 / 100;
#X obj 597 413 *~;
#X obj 598 386 line~;
#X obj 555 451 *~;
#X msg 464 341 1800;
#X msg 114 291 999;
#X obj 153 104 bng 15 250 50 0 empty empty empty 17 7 0 10 -262144
-1 -1;
#X msg 58 283 10;
#X msg 321 270 16;
#X msg 530 287 12;
#X floatatom 57 343 5 0 0 0 - - -, f 5;
#X floatatom 318 351 5 0 0 0 - - -, f 5;
#X floatatom 508 338 5 0 0 0 - - -, f 5;
#X obj 141 46 r banger;
#X msg 166 400 1 \, 0 1000;
#X msg 409 398 1 \, 0 700;
#X msg 597 361 1 \, 0 500;
#X msg -37 385 1 \, 0 1200;
#X obj 857 208 hip~ 15000;
#X obj 857 230 hip~ 15000;
#X obj 857 251 hip~ 15000;
#X obj 857 274 hip~ 15000;
#X obj 857 297 lop~ 20000;
#X obj 857 319 lop~ 20000;
#X obj 857 343 lop~ 20000;
#X obj 857 367 lop~ 20000;
#X obj 856 170 noise~;
#X obj 954 674 dac~;
#X obj 1334 242 r smokeVolume;
#X obj 1347 57 r smokebang;
#X obj 1329 99 bng 15 250 50 0 empty empty empty 17 7 0 10 -262144
-1 -1;
#X obj 1309 284 f;
#X obj 901 512 *~;
#X obj 969 399 exp;
#X obj 943 482 sig~;
#X obj 994 351 f;
#X obj 997 279 sel 1;
#X floatatom 1019 392 5 0 0 0 - - -, f 5;
#X obj 972 441 *;
#X msg 1067 318 bang;
#X floatatom 1081 239 5 0 0 0 - - -, f 5;
#X obj 998 210 timer 1 persec;
#X floatatom 1001 484 5 0 0 0 - - -, f 5;
#X obj 1208 134 delay 100;
#X obj 1180 480 f;
#X msg 1214 447 0;
#X msg 1027 112 stop;
#X obj 1233 199 delay 10;
#X obj 976 556 *~;
#X obj 1114 157 metro 100;
#X obj 1100 427 f;
#X obj 1358 395 r stopbang;
#X obj 1293 426 bng 15 250 50 0 empty empty empty 17 7 0 10 -262144
-1 -1;
#X msg 1176 448 1;
#X obj 998 244 < 1000;
#X msg 963 319 0.02;
#X msg 1010 318 -0.1;
#X obj 976 605 *~;
#X obj 1038 564 f;
#X obj 1150 529 r smokeScale;
#X obj 616 234 dac~;
#X obj 616 208 *~;
#X obj 652 186 *~ 10;
#X obj 552 153 hip~ 4000;
#X obj 652 162 lop~ 60;
#X obj 553 118 noise~;
#X obj 653 136 *~;
#X msg 707 144 1;
#X msg 668 115 0;
#X obj 649 97 bng 15 250 50 0 empty empty empty 17 7 0 10 -262144 -1
-1;
#X obj 650 13 r fuse;
#X obj 727 38 bng 15 250 50 0 empty empty empty 17 7 0 10 -262144 -1
-1;
#X obj 619 67 delay 500;
#X obj -558 339 osc~;
#X obj -558 413 *~;
#X obj -591 310 +~ 2000;
#X obj -520 338 *~;
#X obj -520 363 *~;
#X obj -558 517 *~ 0.01;
#X obj -557 539 lop~ 10000;
#X obj -546 231 bp~ 2.064 0.002;
#X obj -519 388 *~;
#X obj -559 447 *~ 0.3;
#X obj -545 254 *~ 3.2;
#X obj -558 472 hip~ 500;
#X obj -557 495 hip~ 500;
#X obj -592 286 *~ 3000;
#X obj -558 562 *~ 0.02;
#X obj -672 339 osc~;
#X obj -542 160 noise~;
#X obj -672 413 *~;
#X obj -634 338 *~;
#X obj -634 363 *~;
#X obj -672 517 *~ 0.01;
#X obj -671 539 lop~ 10000;
#X obj -660 231 bp~ 2.064 0.002;
#X obj -633 388 *~;
#X obj -673 447 *~ 0.3;
#X obj -659 254 *~ 3.2;
#X obj -672 472 hip~ 500;
#X obj -671 495 hip~ 500;
#X obj -706 286 *~ 344;
#X obj -705 310 +~ 3000;
#X obj -672 562 *~ 0.01;
#X obj -552 610 lop~ 12000;
#X obj -552 635 *~;
#X obj -552 660 *~;
#X obj -551 726 dac~;
#X obj -436 231 bp~, f 10;
#X obj -436 261 bp~, f 10;
#X floatatom -289 186 5 0 0 0 - - -, f 5;
#X obj -306 231 bp~, f 10;
#X obj -306 261 bp~, f 10;
#X floatatom -150 197 5 0 0 0 - - -, f 5;
#X obj -166 231 bp~, f 10;
#X obj -166 261 bp~, f 10;
#X obj -497 39 bng 15 250 50 0 empty empty empty 17 7 0 10 -262144
-1 -1;
#X obj -455 103 vline~;
#X obj -455 146 snapshot~;
#X floatatom -418 171 5 0 0 0 - - -, f 5;
#X obj -455 125 *~ 1000;
#X obj -497 115 metro;
#X obj -333 33 bng 15 250 50 0 empty empty empty 17 7 0 10 -262144
-1 -1;
#X obj -295 100 vline~;
#X obj -289 163 snapshot~;
#X obj -294 125 *~ 1000;
#X obj -333 111 metro;
#X obj -333 52 metro 6000;
#X obj -164 38 bng 15 250 50 0 empty empty empty 17 7 0 10 -262144
-1 -1;
#X obj -124 106 vline~;
#X obj -118 169 snapshot~;
#X obj -123 131 *~ 1000;
#X obj -164 118 metro;
#X msg -316 74 0.3 3000 \, 1.3 3000 1500;
#X obj -497 60 metro 12000;
#X msg -480 84 0.5 8000 \, 2 8000 8000;
#X obj -355 7 r snow_wind;
#X obj -164 57 metro 8000;
#X msg -146 80 0.6 4000 \, 1.7 4000 4000;
#X obj -214 156 loadbang;
#X obj -364 152 loadbang;
#X msg -362 181 4;
#X msg -232 190 6;
#X msg -92 212 8;
#X obj -73 192 loadbang;
#X obj 1713 244 noise~;
#X obj 1705 425 dac~;
#X obj 1755 277 lop~ 50;
#X obj 1692 102 bng 15 250 50 0 empty empty empty 17 7 0 10 -262144
-1 -1;
#X obj 1831 339 *~;
#X obj 1661 276 lop~ 250;
#X obj 1661 300 hip~ 50;
#X obj 1602 352 *~;
#X obj 1705 391 +~;
#X obj 1776 314 *~;
#X obj 1624 328 *~;
#X obj 1692 61 r bombBang;
#X obj 1817 226 random 20;
#X obj 1817 248 - 10;
#X obj 1847 269 + 120;
#X obj 1616 228 random 20;
#X obj 1615 250 -10;
#X obj 1582 274 - 66;
#X msg 1662 198 seed 12;
#X msg 1726 199 seed 33;
#X obj 1687 159 loadbang;
#X obj 1486 240 vline~;
#X obj 1914 283 vline~;
#X msg 1920 249 0 0 \, 1 500 1 \, 0.3 400 501 \, 0 500 901;
#X msg 1484 196 0 0 \, 1 100 \, 0 700 100;
#X obj -511 1028 noise~;
#X obj -526 1051 *~;
#X obj -544 1217 dac~;
#X obj -650 1094 bp~ 440 80;
#X obj -572 1094 bp~ 440 80;
#X obj -495 1094 bp~ 440 80;
#X obj -417 1094 bp~ 440 80;
#X obj -578 892 unpack 1 2 3 4 5;
#X obj -527 950 t;
#X msg -578 869 3454 5645 6433 6999 6000;
#X obj -578 763 bng 15 250 50 0 empty empty empty 17 7 0 10 -262144
-1 -1;
#X obj -172 1037 noise~;
#X obj -187 1060 *~;
#X obj -222 1249 dac~;
#X obj -311 1103 bp~ 440 80;
#X obj -233 1103 bp~ 440 80;
#X obj -156 1103 bp~ 440 80;
#X obj -78 1103 bp~ 440 80;
#X obj -239 901 unpack 1 2 3 4 5;
#X obj -188 959 t;
#X obj -239 854 metro;
#X obj -211 812 random 200;
#X obj -211 833 + 100;
#X obj -224 1191 *~;
#X msg -239 876 2312 2466 3200 5314 6000;
#X obj -406 791 metro 200;
#X obj -188 1010 vline~;
#X msg -188 990 0 0 \, 1 50 \, 0 50 0;
#X obj -527 999 vline~;
#X obj -536 1147 *~ 10;
#X obj -196 1156 *~ 12;
#X msg -527 980 1 0 \, 0 3000;
#X obj -693 746 r chimneyMagic;
#X msg -462 634 0;
#X obj -462 614 loadbang;
#X obj 234 892 osc~;
#X obj 264 871 osc~;
#X obj 234 822 random 100;
#X obj 234 846 / 100;
#X obj 234 872 +;
#X obj 245 912 +~;
#X obj 274 845 * 4;
#X obj 301 818 f;
#X obj 222 774 bng 15 250 50 0 empty empty empty 17 7 0 10 -262144
-1 -1;
#X obj 244 1015 dac~;
#X obj 302 888 bng 15 250 50 0 empty empty empty 17 7 0 10 -262144
-1 -1;
#X obj 324 710 bng 15 250 50 0 empty empty empty 17 7 0 10 -262144
-1 -1;
#X text 324 883 stop sound;
#X text 340 707 play sound;
#X msg 234 798 seed 40;
#X obj 247 733 delay 100;
#X obj 246 933 *~;
#X msg 279 911 0;
#X msg 293 798 50;
#X msg 353 785 1, f 2;
#X obj 245 952 hip~ 150;
#X obj 245 971 hip~ 150;
#X obj 245 990 hip~ 150;
#X obj 288 689 r lowhealthBang;
#X obj 318 864 r lowhealthStop;
#X obj 343 917 loadbang;
#X obj 857 296;
#X obj 857 318;
#X obj 857 340;
#X obj 538 573 noise~;
#X obj 535 903 dac~;
#X obj 537 840 *~;
#X obj 565 680 snapshot~;
#X obj 634 632 vline~;
#X obj 536 879 *~;
#X obj 680 567 bng 15 250 50 0 empty empty empty 17 7 0 10 -262144
-1 -1;
#X obj 565 603 loadbang;
#X obj 565 627 metro 10;
#X obj 536 860 hip~ 50;
#X obj 622 743 + 15;
#X msg 634 608 1 300 \, 0 500 800;
#X obj 634 586 del 10;
#X msg 742 615 0;
#X obj 537 765 bp~ 500 15;
#X obj 622 721 *;
#X obj 637 701 / 100;
#X msg 686 657 seed 5;
#X obj 686 635 loadbang;
#X obj 679 679 random 2000;
#X obj 680 545 r throwBang;
#X obj 579 796 r throwVol;
#X obj 552 820 f;
#X obj 565 739 + 500;
#X obj 565 719 * 3000;
#X obj 663 769 vline~;
#X msg 663 748 2 200 \, 0 150 200;
#X obj 1193 855 dac~;
#X obj 1191 621 bng 15 250 50 0 empty empty empty 17 7 0 10 -262144
-1 -1;
#X obj 1194 814 *~;
#X obj 1127 733 vline~;
#X msg 1215 669 0;
#X obj 1249 711 vline~;
#X obj 1128 773 +~ 300;
#X obj 1127 755 *~ 700;
#X obj 1250 673 delay 1;
#X obj 1127 680 + 500;
#X obj 1126 663 random 4000;
#X obj 1194 833 bp~ 500 90;
#X obj 1191 602 r jumpBang;
#X obj 1126 646 delay 1;
#X text 1251 643 delay to reset last jump before the next starts;
#X msg 1126 715 \$2 \$1;
#X obj 1127 697 pack \$1 10;
#X obj 1127 798 phasor~;
#X msg 1251 694 8 0 \, 0 0 600;
#X obj 864 978 *~;
#X obj 895 748 bng 15 250 50 0 empty empty empty 17 7 0 10 -262144
-1 -1;
#X obj 772 904 vline~;
#X obj 895 771 t b b, f 17;
#X obj 895 799 del 100;
#X msg 972 824 0;
#X obj 858 1050 dac~;
#X obj 895 856 vline~;
#X obj 881 906 snapshot~;
#X obj 853 845 50;
#X obj 881 879 -~;
#X obj 947 877 metro 10;
#X msg 895 828 40 3000;
#X obj 880 953 bp~ 600 2;
#X obj 953 853 loadbang;
#X obj 895 725 r deathBang;
#X obj 881 928 phasor~;
#X obj 1471 505 readsf~;
#X obj 1449 597 dac~;
#X msg 1470 431 open jinglebells1.wav \, 1;
#X obj 1597 499 bng 15 250 50 0 empty empty empty 17 7 0 10 -262144
-1 -1;
#X msg 1502 470 0, f 2;
#N canvas 918 248 958 988 tamborina 0;
#X obj 422 179 *~;
#X obj 435 123 noise~;
#X obj 315 232 *~;
#X obj 328 176 noise~;
#X obj 194 262 *~;
#X obj 210 207 noise~;
#X obj 267 39 inlet;
#X text 142 15 tamborina Pd patch, f 19;
#X obj 154 123 delay 60;
#X obj 258 94 delay 120;
#X obj 374 136 vline~;
#X obj 147 213 vline~;
#X obj 256 180 vline~;
#X obj 436 150 bp~ 15000 1000;
#X obj 329 200 bp~ 15000 1000;
#X obj 211 232 bp~ 15000 1000;
#X obj 423 239 *~ 5;
#X obj 316 292 *~ 5;
#X obj 195 322 *~ 5;
#X msg 135 182 1 1 \, 0 180 1;
#X msg 248 148 1 1 \, 0 180 1;
#X msg 369 109 1 1 \, 0 180 1;
#X obj 422 265 outlet~;
#X obj 196 355 outlet~;
#X obj 317 325 outlet~;
#X connect 0 0 16 0;
#X connect 1 0 13 0;
#X connect 2 0 17 0;
#X connect 3 0 14 0;
#X connect 4 0 18 0;
#X connect 5 0 15 0;
#X connect 6 0 8 0;
#X connect 6 0 9 0;
#X connect 6 0 21 0;
#X connect 8 0 19 0;
#X connect 9 0 20 0;
#X connect 10 0 0 0;
#X connect 11 0 4 0;
#X connect 12 0 2 1;
#X connect 13 0 0 1;
#X connect 14 0 2 1;
#X connect 15 0 4 1;
#X connect 16 0 22 0;
#X connect 17 0 24 0;
#X connect 18 0 23 0;
#X connect 19 0 11 0;
#X connect 20 0 12 0;
#X connect 21 0 10 0;
#X restore 1552 557 pd tamborina;
#X obj 1628 468 r jinglebellBang;
#X obj 1463 571 *~;
#X msg 1651 566 0;
#X msg 1651 535 1;
#X obj 1725 534 r jinglebellBangStop;
#X obj -296 602 r snow_windStop;
#X obj 1525 619 dac~;
#X obj 1539 593 *~;
#X obj 1567 620 dac~;
#X obj 1581 594 *~;
#X obj 1604 620 dac~;
#X obj 1618 594 *~;
#X obj 1465 1166 dac~;
#X floatatom 1481 842 5 0 0 0 - - -, f 5;
#X floatatom 1464 986 5 0 0 0 - - -, f 5;
#X obj 1464 1033 osc~ 100;
#X obj 1430 756 bng 15 250 50 0 empty empty empty 17 7 0 10 -262144
-1 -1;
#X obj 1475 812 f;
#X obj 1520 812 + 1;
#X msg 1531 744 0;
#X obj 1420 792 -1;
#X obj 1465 758 metro 450;
#X obj 1463 1058 lop~ 100;
#X obj 1441 727 r silentnight;
#X obj 1588 1062 loadbang;
#X obj 1464 1124 *~;
#X msg 1533 1107 0;
#X msg 1526 1059 1;
#X obj 1603 986 r silentnightStop;
#X obj -599 1688 dac~;
#X obj -599 1533 *~;
#X msg -635 1437 symbol snow_crunch_fast.wav;
#X obj -335 1460 noise~;
#X obj -280 1476 bp~ 50 2;
#X obj -258 1434 random 50;
#X obj -258 1454 + 50;
#X obj -599 1618 +~;
#X obj -458 1602 *~;
#X msg -252 1410 seed 13;
#N canvas 0 72 1920 996 readFile 0;
#X obj 149 86 soundfiler;
#X floatatom 149 146 5 0 0 0 - - -, f 5;
#X obj 149 185 phasor~;
#X obj 149 206 *~;
#X obj 149 164 *;
#X obj 191 129 t b f;
#X obj 149 107 expr 44100 / $f1;
#X obj 149 38 inlet;
#X obj 149 343 outlet~;
#X text 312 124 playback speed;
#X obj 302 141 random 100;
#X obj 302 163 / 100;
#X obj 302 183 + 0.5;
#X obj 303 67 inlet;
#X obj 360 75 inlet;
#X msg 318 108 seed \$1;
#X text 198 29 inlet1: filename;
#X text 422 73 inlet4: seed number;
#X text 324 40 inlet3: bang on random generator;
#X msg 149 65 read -resize \$1 array2;
#X obj 152 247 tabread4~ array2;
#X connect 0 0 3 1;
#X connect 0 0 6 0;
#X connect 1 0 4 0;
#X connect 2 0 3 0;
#X connect 3 0 20 0;
#X connect 4 0 2 0;
#X connect 5 0 1 0;
#X connect 5 1 4 1;
#X connect 6 0 1 0;
#X connect 7 0 19 0;
#X connect 10 0 11 0;
#X connect 11 0 12 0;
#X connect 12 0 5 0;
#X connect 13 0 10 0;
#X connect 13 0 15 0;
#X connect 14 0 15 0;
#X connect 15 0 10 0;
#X connect 19 0 0 0;
#X connect 20 0 8 0;
#X restore -130 1471 pd readFile;
#X obj -174 1682 dac~;
#X obj -158 1519 *~;
#X obj -174 1591 +~;
#X msg -30 1449 100;
#X obj -280 1575 *~;
#N canvas 0 50 1920 997 readFile 0;
#X obj 149 86 soundfiler;
#X floatatom 149 146 5 0 0 0 - - -, f 5;
#X obj 149 185 phasor~;
#X obj 149 206 *~;
#X obj 149 164 *;
#X obj 191 129 t b f;
#X obj 149 107 expr 44100 / $f1;
#X obj 154 253 tabread4~ array1;
#X obj 149 38 inlet;
#X msg 149 65 read -resize \$1 array1;
#X obj 149 343 outlet~;
#X text 312 124 playback speed;
#X obj 304 131 random 100;
#X obj 304 153 / 100;
#X obj 302 183 + 0.5;
#X obj 303 67 inlet;
#X obj 360 75 inlet;
#X msg 318 108 seed \$1;
#X text 198 29 inlet1: filename;
#X text 422 73 inlet4: seed number;
#X text 324 40 inlet3: bang on random generator;
#X msg 252 160 0.5;
#X connect 0 0 3 1;
#X connect 0 0 6 0;
#X connect 1 0 4 0;
#X connect 2 0 3 0;
#X connect 3 0 7 0;
#X connect 4 0 2 0;
#X connect 5 0 1 0;
#X connect 5 1 4 1;
#X connect 6 0 1 0;
#X connect 7 0 10 0;
#X connect 8 0 9 0;
#X connect 9 0 0 0;
#X connect 12 0 13 0;
#X connect 13 0 14 0;
#X connect 15 0 12 0;
#X connect 15 0 17 0;
#X connect 16 0 17 0;
#X connect 17 0 12 0;
#X connect 21 0 5 0;
#X restore -597 1478 pd readFile;
#X msg -519 1457 34;
#X obj -252 1389 loadbang;
#X obj -566 1412 loadbang;
#X obj -598 1503 *~;
#X obj -476 1486 line~;
#X msg -476 1465 \$1 20;
#X obj -144 1493 *~;
#X obj -181 1454 line~;
#X msg -181 1433 \$1 20;
#X obj -99 1405 loadbang;
#X obj -372 1523 bp~ 50 2;
#X obj -412 1475 random 50;
#X obj -412 1495 + 50;
#X obj -412 1432 loadbang;
#X msg -412 1453 seed 48;
#X obj -334 1333 bng 15 250 50 0 empty empty empty 17 7 0 10 -262144
-1 -1;
#X obj -181 1389 random 10;
#X obj -181 1412 / 10;
#X msg -168 1366 seed 71;
#X obj -168 1346 loadbang;
#X obj -418 1362 random 10;
#X obj -418 1381 / 10;
#X obj -448 1318 loadbang;
#X msg -448 1339 seed 55;
#X text -635 1368 load a crunch with higher tempo;
#X text -86 1365 load a crunch with slower tempo;
#X msg -130 1429 symbol snow_crunch_slower.wav;
#X obj -334 1308 r snowCrunch;
#X obj -584 1340 array define array1;
#X obj -43 1341 array define array2;
#X obj -539 1561 vline~;
#X msg -536 1537 1 0 \, 0 500;
#X obj -251 1534 vline~;
#X msg -248 1510 1 0 \, 0 500;
#X obj 1464 1008 * 2000;
#X msg 772 882 1 5 \, 0 1500 500;
#X obj 864 1006 *~ 5;
#X obj -598 1640 hip~ 100;
#X obj -173 1613 hip~ 100;
#X obj -601 1666 *~ 1;
#X obj -174 1642 *~ 1;
#X msg 1466 870 \$1;
#X msg 1471 902 adddollar \$1;
#X msg 1464 943 \$72;
#X msg 1409 887 set;
#X obj 1478 786 delay 10;
#X obj 1344 846 sel 1;
#X obj 1328 771 delay 2000;
#X obj 1344 820 == 87;
#X msg 1601 838 0 0.196 0.196 0.22 0.196 0.196 0.165 0.165 0.165 0.196
0.196 0.22 0.196 0.196 0.165 0.165 0.165 0.294 0.294 0.294 0.294 0.247
0.247 0.247 0.262 0.262 0.262 0.196 0.196 0.22 0.22 0.22 0.262 0.262
0.247 0.22 0.22 0.196 0.196 0.22 0.196 0.196 0.165 0.165 0.165 0.22
0.22 0.22 0.262 0.262 0.247 0.22 0.22 0.196 0.196 0.22 0.196 0.196
0.165 0.165 0.165 0.294 0.294 0.294 0.349 0.349 0.349 0.294 0.247 0.262
0.262 0.262 0.33 0.33 0.33 0.262 0.262 0.196 0.165 0.196 0.196 0.175
0.147 0.131 0.131 0.131 0 0 0 0 0;
#X obj 1936 547 readsf~;
#X obj 1914 639 dac~;
#X obj 1929 599 *~ 1;
#X obj 1941 450 r drinkBang;
#X msg 1935 473 open drinking.wav \, 1;
#X obj 524 1270 noise~;
#X obj 509 1293 *~;
#X obj 500 1425 dac~;
#X obj 385 1336 bp~ 440 80;
#X obj 463 1336 bp~ 440 80;
#X obj 540 1336 bp~ 440 80;
#X obj 618 1336 bp~ 440 80;
#X obj 457 1171 unpack 1 2 3 4 5;
#X obj 506 1215 t;
#X obj 503 1021 bng 15 250 50 0 empty empty empty 17 7 0 10 -262144
-1 -1;
#X obj 393 1089 metro 50;
#X msg 393 1062 0, f 2;
#X obj 499 1389 *~ 4;
#X msg 456 1117 1879 3133 2051 6640 1340;
#X obj 393 1035 delay 250;
#X obj 498 981 r icicle;
#X obj 473 1258 vline~;
#X msg 473 1239 1 20 \, 0 60 20;
#X msg 1108 1077 bang, f 5;
#X obj 1094 1306 osc~;
#X obj 1124 1285 osc~;
#X obj 1094 1286 +;
#X obj 1105 1326 +~;
#X obj 1162 1191 f;
#X obj 1083 1097 bng 15 250 50 0 empty empty empty 17 7 0 10 -262144
-1 -1;
#X obj 1105 1461 dac~;
#X obj 1162 1302 bng 15 250 50 0 empty empty empty 17 7 0 10 -262144
-1 -1;
#X obj 1185 1033 bng 15 250 50 0 empty empty empty 17 7 0 10 -262144
-1 -1;
#X text 1184 1297 stop sound;
#X text 1201 1030 play sound;
#X obj 1108 1056 delay 100;
#X obj 1106 1347 *~;
#X msg 1139 1325 0;
#X msg 1214 1108 1, f 2;
#X obj 1160 1404 vline~;
#X obj 1135 1218 * 1;
#X obj 1105 1432 *~;
#X obj 1105 1366 hip~ 1;
#X obj 1107 1384 hip~ 1;
#X obj 1105 1404 hip~ 1;
#X msg 1154 1171 60;
#X obj 1068 1220 + 1;
#X msg 1032 1248 adddollar \$1;
#X msg 1031 1269 \$2;
#X msg 987 1210 set;
#X obj 935 1148 del 100;
#X obj 1083 1123 del 10;
#X msg 1214 1349 5 0 \, 0 1000;
#X obj 1149 1012 r damageBang;
#X msg 935 1170 11 14 43 24;
#X obj 1077 1196 random 4;
#X msg 1093 1168 seed 100;
#X msg -504 652 1;
#X obj -426 643 *~;
#X msg -342 630 0.2;
#X msg -301 657 0;
#X obj 1552 530 metro 400;
#X obj 2079 505 readsf~;
#X obj 2080 554 dac~;
#X obj 2205 499 bng 15 250 50 0 empty empty empty 17 7 0 10 -262144
-1 -1;
#X msg 2110 470 0, f 2;
#X msg 2078 431 open deckthehalls.wav \, 1;
#X obj 2236 468 r deckBang;
#X obj 2167 554 r deckBangStop;
#X obj -162 1215 *~;
#X msg -98 1161 1;
#X msg -96 1193 0;
#X obj -28 1190 r chimneyMagicStop;
#X obj -533 1182 *~;
#X connect 1 0 4 0;
#X connect 2 0 3 1;
#X connect 3 0 19 0;
#X connect 4 0 18 0;
#X connect 5 0 6 0;
#X connect 6 0 3 0;
#X connect 7 0 4 1;
#X connect 8 0 19 1;
#X connect 9 0 8 0;
#X connect 9 0 8 1;
#X connect 10 0 18 1;
#X connect 11 0 10 0;
#X connect 11 0 10 1;
#X connect 12 0 13 1;
#X connect 13 0 17 0;
#X connect 14 0 13 0;
#X connect 15 0 17 1;
#X connect 16 0 15 0;
#X connect 16 0 15 1;
#X connect 17 0 20 0;
#X connect 18 0 20 0;
#X connect 19 0 20 0;
#X connect 20 0 0 0;
#X connect 20 0 0 1;
#X connect 21 0 2 0;
#X connect 22 0 41 0;
#X connect 22 0 32 0;
#X connect 23 0 24 0;
#X connect 23 0 42 0;
#X connect 23 0 31 0;
#X connect 23 0 43 0;
#X connect 24 0 1 0;
#X connect 25 0 26 0;
#X connect 26 0 30 0;
#X connect 27 0 26 1;
#X connect 28 0 30 1;
#X connect 29 0 28 0;
#X connect 29 0 28 1;
#X connect 30 0 20 0;
#X connect 31 0 25 0;
#X connect 32 0 12 0;
#X connect 33 0 21 0;
#X connect 33 0 22 0;
#X connect 33 0 23 0;
#X connect 33 0 44 0;
#X connect 33 0 34 0;
#X connect 33 0 35 0;
#X connect 33 0 36 0;
#X connect 34 0 37 0;
#X connect 35 0 38 0;
#X connect 36 0 39 0;
#X connect 37 0 14 0;
#X connect 38 0 7 0;
#X connect 39 0 27 0;
#X connect 40 0 33 0;
#X connect 41 0 16 0;
#X connect 42 0 11 0;
#X connect 43 0 29 0;
#X connect 44 0 9 0;
#X connect 45 0 46 0;
#X connect 46 0 47 0;
#X connect 47 0 48 0;
#X connect 48 0 49 0;
#X connect 48 0 258 0;
#X connect 49 0 50 0;
#X connect 50 0 51 0;
#X connect 51 0 52 0;
#X connect 52 0 59 0;
#X connect 53 0 45 0;
#X connect 55 0 58 1;
#X connect 56 0 57 0;
#X connect 57 0 58 0;
#X connect 57 0 70 0;
#X connect 57 0 74 0;
#X connect 57 0 80 0;
#X connect 58 0 77 1;
#X connect 59 0 75 0;
#X connect 60 0 65 0;
#X connect 61 0 59 1;
#X connect 62 0 60 0;
#X connect 62 0 64 0;
#X connect 63 0 66 0;
#X connect 63 0 82 0;
#X connect 63 1 66 0;
#X connect 63 1 83 0;
#X connect 65 0 61 0;
#X connect 65 0 69 0;
#X connect 65 0 77 1;
#X connect 66 0 77 0;
#X connect 68 0 67 0;
#X connect 68 0 81 0;
#X connect 70 0 68 0;
#X connect 70 0 76 0;
#X connect 71 0 75 1;
#X connect 72 0 71 0;
#X connect 73 0 76 0;
#X connect 74 0 77 0;
#X connect 75 0 84 0;
#X connect 76 0 68 1;
#X connect 77 0 65 1;
#X connect 78 0 79 0;
#X connect 79 0 72 0;
#X connect 79 0 73 0;
#X connect 80 0 71 0;
#X connect 81 0 63 0;
#X connect 82 0 62 0;
#X connect 83 0 62 0;
#X connect 84 0 54 0;
#X connect 84 0 54 1;
#X connect 85 0 84 1;
#X connect 86 0 85 0;
#X connect 88 0 87 0;
#X connect 88 0 87 1;
#X connect 89 0 88 1;
#X connect 90 0 88 0;
#X connect 91 0 89 0;
#X connect 92 0 93 0;
#X connect 93 0 90 0;
#X connect 93 0 91 0;
#X connect 94 0 93 1;
#X connect 95 0 93 1;
#X connect 96 0 95 0;
#X connect 97 0 98 0;
#X connect 98 0 94 0;
#X connect 98 0 99 0;
#X connect 99 0 96 0;
#X connect 100 0 101 0;
#X connect 101 0 109 0;
#X connect 102 0 100 0;
#X connect 103 0 104 0;
#X connect 103 0 104 1;
#X connect 104 0 108 0;
#X connect 104 0 108 1;
#X connect 105 0 106 0;
#X connect 106 0 114 0;
#X connect 107 0 110 0;
#X connect 108 0 101 1;
#X connect 109 0 111 0;
#X connect 110 0 103 0;
#X connect 110 0 103 1;
#X connect 110 0 113 0;
#X connect 111 0 112 0;
#X connect 112 0 105 0;
#X connect 113 0 102 0;
#X connect 114 0 131 0;
#X connect 115 0 117 0;
#X connect 116 0 122 0;
#X connect 116 0 107 0;
#X connect 116 0 135 0;
#X connect 116 0 138 0;
#X connect 116 0 141 0;
#X connect 117 0 124 0;
#X connect 118 0 119 0;
#X connect 118 0 119 1;
#X connect 119 0 123 0;
#X connect 119 0 123 1;
#X connect 120 0 121 0;
#X connect 121 0 130 0;
#X connect 122 0 125 0;
#X connect 123 0 117 1;
#X connect 124 0 126 0;
#X connect 125 0 118 0;
#X connect 125 0 118 1;
#X connect 125 0 128 0;
#X connect 126 0 127 0;
#X connect 127 0 120 0;
#X connect 128 0 129 0;
#X connect 129 0 115 0;
#X connect 130 0 131 0;
#X connect 131 0 132 0;
#X connect 132 0 133 0;
#X connect 133 0 134 0;
#X connect 133 0 134 1;
#X connect 135 0 136 0;
#X connect 136 0 484 0;
#X connect 137 0 138 1;
#X connect 137 0 139 1;
#X connect 138 0 139 0;
#X connect 139 0 484 0;
#X connect 140 0 141 1;
#X connect 140 0 142 1;
#X connect 141 0 142 0;
#X connect 142 0 484 0;
#X connect 143 0 161 0;
#X connect 144 0 147 0;
#X connect 145 0 146 0;
#X connect 146 0 135 1;
#X connect 146 0 136 1;
#X connect 147 0 145 0;
#X connect 148 0 145 0;
#X connect 149 0 154 0;
#X connect 150 0 152 0;
#X connect 151 0 137 0;
#X connect 152 0 151 0;
#X connect 153 0 151 0;
#X connect 154 0 153 0;
#X connect 154 0 160 0;
#X connect 155 0 164 0;
#X connect 156 0 158 0;
#X connect 157 0 140 0;
#X connect 158 0 157 0;
#X connect 159 0 157 0;
#X connect 160 0 150 0;
#X connect 161 0 148 0;
#X connect 161 0 162 0;
#X connect 162 0 144 0;
#X connect 163 0 143 0;
#X connect 163 0 149 0;
#X connect 163 0 155 0;
#X connect 163 0 483 0;
#X connect 163 0 485 0;
#X connect 164 0 159 0;
#X connect 164 0 165 0;
#X connect 165 0 156 0;
#X connect 166 0 169 0;
#X connect 167 0 168 0;
#X connect 168 0 135 2;
#X connect 168 0 136 2;
#X connect 169 0 139 2;
#X connect 169 0 138 2;
#X connect 170 0 141 2;
#X connect 171 0 170 0;
#X connect 172 0 174 0;
#X connect 172 0 177 0;
#X connect 174 0 181 0;
#X connect 175 0 184 0;
#X connect 175 0 187 0;
#X connect 175 0 195 0;
#X connect 175 0 196 0;
#X connect 176 0 180 1;
#X connect 177 0 178 0;
#X connect 178 0 182 1;
#X connect 179 0 180 0;
#X connect 180 0 173 0;
#X connect 180 0 173 1;
#X connect 181 0 176 0;
#X connect 182 0 179 1;
#X connect 183 0 175 0;
#X connect 184 0 185 0;
#X connect 185 0 186 0;
#X connect 186 0 181 1;
#X connect 187 0 188 0;
#X connect 188 0 189 0;
#X connect 189 0 182 0;
#X connect 190 0 187 0;
#X connect 191 0 184 0;
#X connect 192 0 191 0;
#X connect 192 0 190 0;
#X connect 193 0 179 0;
#X connect 194 0 176 0;
#X connect 195 0 194 0;
#X connect 196 0 193 0;
#X connect 197 0 198 1;
#X connect 198 0 200 0;
#X connect 198 0 201 0;
#X connect 198 0 202 0;
#X connect 198 0 203 0;
#X connect 200 0 226 0;
#X connect 201 0 226 0;
#X connect 202 0 226 0;
#X connect 203 0 226 0;
#X connect 204 0 200 1;
#X connect 204 1 201 1;
#X connect 204 2 202 1;
#X connect 204 3 203 1;
#X connect 204 4 205 0;
#X connect 204 4 200 2;
#X connect 204 4 201 2;
#X connect 204 4 202 2;
#X connect 204 4 203 2;
#X connect 205 0 228 0;
#X connect 206 0 204 0;
#X connect 207 0 217 0;
#X connect 207 0 222 0;
#X connect 207 0 206 0;
#X connect 207 0 496 0;
#X connect 208 0 209 1;
#X connect 209 0 211 0;
#X connect 209 0 212 0;
#X connect 209 0 213 0;
#X connect 209 0 214 0;
#X connect 211 0 227 0;
#X connect 212 0 227 0;
#X connect 213 0 227 0;
#X connect 214 0 227 0;
#X connect 215 0 211 1;
#X connect 215 1 212 1;
#X connect 215 2 213 1;
#X connect 215 3 214 1;
#X connect 215 4 216 0;
#X connect 215 4 211 2;
#X connect 215 4 212 2;
#X connect 215 4 213 2;
#X connect 215 4 214 2;
#X connect 216 0 224 0;
#X connect 217 0 221 0;
#X connect 218 0 219 0;
#X connect 219 0 217 1;
#X connect 220 0 495 1;
#X connect 221 0 215 0;
#X connect 222 0 218 0;
#X connect 223 0 209 0;
#X connect 224 0 223 0;
#X connect 225 0 198 0;
#X connect 225 0 220 0;
#X connect 226 0 499 0;
#X connect 227 0 220 1;
#X connect 228 0 225 0;
#X connect 229 0 207 0;
#X connect 230 0 133 1;
#X connect 231 0 230 0;
#X connect 232 0 237 0;
#X connect 233 0 237 1;
#X connect 234 0 235 0;
#X connect 235 0 236 0;
#X connect 236 0 232 0;
#X connect 237 0 248 0;
#X connect 238 0 233 0;
#X connect 238 0 236 1;
#X connect 239 0 238 0;
#X connect 240 0 246 0;
#X connect 240 0 234 0;
#X connect 242 0 249 0;
#X connect 243 0 250 0;
#X connect 243 0 247 0;
#X connect 243 0 251 0;
#X connect 246 0 234 0;
#X connect 247 0 240 0;
#X connect 248 0 252 0;
#X connect 249 0 248 1;
#X connect 250 0 239 0;
#X connect 251 0 248 1;
#X connect 252 0 253 0;
#X connect 253 0 254 0;
#X connect 254 0 241 1;
#X connect 254 0 241 0;
#X connect 255 0 243 0;
#X connect 256 0 242 0;
#X connect 257 0 249 0;
#X connect 258 0 259 0;
#X connect 259 0 260 0;
#X connect 261 0 275 0;
#X connect 263 0 270 0;
#X connect 264 0 276 0;
#X connect 264 0 285 0;
#X connect 265 0 264 0;
#X connect 266 0 262 0;
#X connect 266 0 262 1;
#X connect 267 0 274 0;
#X connect 267 0 273 0;
#X connect 267 0 280 0;
#X connect 268 0 269 0;
#X connect 269 0 264 0;
#X connect 270 0 266 0;
#X connect 271 0 275 2;
#X connect 272 0 265 0;
#X connect 273 0 272 0;
#X connect 273 0 287 0;
#X connect 274 0 265 0;
#X connect 274 0 286 0;
#X connect 275 0 263 0;
#X connect 276 0 271 0;
#X connect 277 0 276 1;
#X connect 278 0 280 0;
#X connect 279 0 278 0;
#X connect 280 0 277 0;
#X connect 281 0 267 0;
#X connect 282 0 283 0;
#X connect 283 0 263 1;
#X connect 284 0 275 1;
#X connect 285 0 284 0;
#X connect 286 0 266 1;
#X connect 287 0 286 0;
#X connect 289 0 292 0;
#X connect 289 0 296 0;
#X connect 289 0 301 0;
#X connect 290 0 299 0;
#X connect 291 0 295 0;
#X connect 292 0 291 0;
#X connect 292 0 293 0;
#X connect 293 0 290 1;
#X connect 294 0 305 0;
#X connect 295 0 294 0;
#X connect 296 0 306 0;
#X connect 297 0 304 0;
#X connect 298 0 297 0;
#X connect 299 0 288 0;
#X connect 299 0 288 1;
#X connect 300 0 289 0;
#X connect 301 0 298 0;
#X connect 303 0 291 0;
#X connect 304 0 303 0;
#X connect 305 0 290 0;
#X connect 306 0 293 0;
#X connect 307 0 412 0;
#X connect 308 0 310 0;
#X connect 309 0 307 0;
#X connect 310 0 311 0;
#X connect 310 1 312 0;
#X connect 311 0 411 0;
#X connect 311 0 316 0;
#X connect 311 0 319 0;
#X connect 312 0 314 0;
#X connect 314 0 317 1;
#X connect 315 0 323 0;
#X connect 316 0 317 0;
#X connect 317 0 315 0;
#X connect 318 0 315 0;
#X connect 319 0 314 0;
#X connect 320 0 307 1;
#X connect 321 0 318 0;
#X connect 322 0 308 0;
#X connect 323 0 320 0;
#X connect 324 0 331 0;
#X connect 324 1 327 0;
#X connect 326 0 324 0;
#X connect 327 0 326 0;
#X connect 327 0 487 0;
#X connect 328 0 324 0;
#X connect 328 0 487 0;
#X connect 329 0 337 0;
#X connect 329 1 339 0;
#X connect 329 2 341 0;
#X connect 330 0 327 0;
#X connect 330 0 333 0;
#X connect 331 0 325 0;
#X connect 331 0 325 1;
#X connect 332 0 331 1;
#X connect 332 0 341 1;
#X connect 332 0 339 1;
#X connect 332 0 337 1;
#X connect 333 0 331 1;
#X connect 333 0 341 1;
#X connect 333 0 339 1;
#X connect 333 0 337 1;
#X connect 334 0 332 0;
#X connect 334 0 328 0;
#X connect 335 0 230 0;
#X connect 335 0 486 0;
#X connect 337 0 336 0;
#X connect 337 0 336 1;
#X connect 339 0 338 0;
#X connect 339 0 338 1;
#X connect 341 0 340 0;
#X connect 341 0 340 1;
#X connect 343 0 417 0;
#X connect 343 0 424 0;
#X connect 344 0 410 0;
#X connect 345 0 352 0;
#X connect 346 0 350 0;
#X connect 346 0 351 0;
#X connect 347 0 348 0;
#X connect 347 0 343 0;
#X connect 348 0 347 1;
#X connect 349 0 351 0;
#X connect 350 0 347 0;
#X connect 351 0 420 0;
#X connect 351 0 421 0;
#X connect 352 0 355 0;
#X connect 353 0 346 0;
#X connect 353 0 357 0;
#X connect 354 0 356 0;
#X connect 355 0 342 0;
#X connect 356 0 355 1;
#X connect 357 0 355 1;
#X connect 358 0 356 0;
#X connect 358 0 349 0;
#X connect 360 0 366 0;
#X connect 361 0 375 0;
#X connect 362 0 363 0;
#X connect 362 0 386 0;
#X connect 363 0 374 0;
#X connect 364 0 365 0;
#X connect 365 0 363 1;
#X connect 366 0 413 0;
#X connect 367 0 366 1;
#X connect 368 0 364 0;
#X connect 369 0 382 1;
#X connect 371 0 372 1;
#X connect 372 0 414 0;
#X connect 373 0 369 2;
#X connect 374 0 372 0;
#X connect 375 0 379 0;
#X connect 376 0 375 2;
#X connect 377 0 368 0;
#X connect 378 0 361 0;
#X connect 378 0 375 1;
#X connect 378 0 376 0;
#X connect 379 0 360 0;
#X connect 380 0 379 1;
#X connect 381 0 380 0;
#X connect 382 0 371 1;
#X connect 383 0 382 0;
#X connect 384 0 383 0;
#X connect 385 0 402 0;
#X connect 385 0 369 1;
#X connect 385 0 373 0;
#X connect 386 0 367 1;
#X connect 387 0 388 0;
#X connect 388 0 386 1;
#X connect 389 0 390 0;
#X connect 390 0 387 0;
#X connect 391 0 392 0;
#X connect 391 0 396 0;
#X connect 391 0 387 0;
#X connect 391 0 364 0;
#X connect 391 0 407 0;
#X connect 391 0 409 0;
#X connect 392 0 393 0;
#X connect 393 0 384 0;
#X connect 394 0 392 0;
#X connect 395 0 394 0;
#X connect 396 0 397 0;
#X connect 397 0 381 0;
#X connect 398 0 399 0;
#X connect 399 0 396 0;
#X connect 402 0 369 0;
#X connect 403 0 391 0;
#X connect 406 0 367 0;
#X connect 406 0 360 1;
#X connect 407 0 406 0;
#X connect 408 0 374 1;
#X connect 409 0 408 0;
#X connect 410 0 345 0;
#X connect 411 0 309 0;
#X connect 412 0 313 0;
#X connect 412 0 313 1;
#X connect 413 0 415 0;
#X connect 414 0 416 0;
#X connect 415 0 359 0;
#X connect 415 0 359 1;
#X connect 416 0 370 0;
#X connect 416 0 370 1;
#X connect 417 0 418 0;
#X connect 418 0 419 0;
#X connect 419 0 344 0;
#X connect 420 0 419 0;
#X connect 421 0 347 0;
#X connect 421 0 425 0;
#X connect 422 0 423 0;
#X connect 423 0 346 0;
#X connect 424 0 422 0;
#X connect 425 0 419 0;
#X connect 426 0 428 0;
#X connect 428 0 427 0;
#X connect 428 0 427 1;
#X connect 429 0 430 0;
#X connect 430 0 426 0;
#X connect 431 0 432 1;
#X connect 432 0 434 0;
#X connect 432 0 435 0;
#X connect 432 0 436 0;
#X connect 432 0 437 0;
#X connect 434 0 443 0;
#X connect 435 0 443 0;
#X connect 436 0 443 0;
#X connect 437 0 443 0;
#X connect 438 0 434 1;
#X connect 438 1 435 1;
#X connect 438 2 436 1;
#X connect 438 3 437 1;
#X connect 438 4 439 0;
#X connect 438 4 434 2;
#X connect 438 4 435 2;
#X connect 438 4 436 2;
#X connect 438 4 437 2;
#X connect 439 0 448 0;
#X connect 440 0 444 0;
#X connect 440 0 441 0;
#X connect 440 0 445 0;
#X connect 441 0 444 0;
#X connect 442 0 441 0;
#X connect 443 0 433 0;
#X connect 443 0 433 1;
#X connect 444 0 438 0;
#X connect 445 0 442 0;
#X connect 446 0 440 0;
#X connect 447 0 432 0;
#X connect 448 0 447 0;
#X connect 449 0 455 0;
#X connect 450 0 453 0;
#X connect 451 0 453 1;
#X connect 452 0 450 0;
#X connect 453 0 462 0;
#X connect 454 0 466 0;
#X connect 455 0 478 0;
#X connect 455 0 475 0;
#X connect 455 0 476 0;
#X connect 455 0 477 0;
#X connect 457 0 463 0;
#X connect 458 0 471 0;
#X connect 458 0 461 0;
#X connect 458 0 464 0;
#X connect 461 0 449 0;
#X connect 462 0 468 0;
#X connect 463 0 462 1;
#X connect 464 0 462 1;
#X connect 465 0 467 1;
#X connect 466 0 451 0;
#X connect 466 0 452 1;
#X connect 467 0 456 0;
#X connect 467 0 456 1;
#X connect 468 0 469 0;
#X connect 469 0 470 0;
#X connect 470 0 467 0;
#X connect 471 0 454 0;
#X connect 472 0 473 0;
#X connect 473 0 474 0;
#X connect 474 0 452 0;
#X connect 475 0 474 0;
#X connect 476 0 480 0;
#X connect 477 0 481 0;
#X connect 478 0 465 0;
#X connect 479 0 458 0;
#X connect 480 0 474 0;
#X connect 481 0 472 0;
#X connect 482 0 481 0;
#X connect 483 0 132 1;
#X connect 483 0 133 1;
#X connect 484 0 134 0;
#X connect 484 0 134 1;
#X connect 485 0 484 1;
#X connect 486 0 484 1;
#X connect 487 0 329 0;
#X connect 488 0 489 0;
#X connect 488 0 489 1;
#X connect 488 1 490 0;
#X connect 490 0 492 0;
#X connect 491 0 488 0;
#X connect 492 0 488 0;
#X connect 493 0 490 0;
#X connect 494 0 491 0;
#X connect 495 0 210 0;
#X connect 495 0 210 1;
#X connect 496 0 495 1;
#X connect 496 0 499 1;
#X connect 497 0 495 1;
#X connect 497 0 499 1;
#X connect 498 0 497 0;
#X connect 499 0 199 0;
#X connect 499 0 199 1;
