#N canvas -7 0 1269 988 10;
#X msg 796 247 bang;
#X obj 60 562 osc~;
#X obj 119 547 osc~;
#X obj 60 443 random 100;
#X msg 60 410 seed 99;
#X obj 60 477 / 100;
#X obj 60 521 +;
#X obj 180 414 * 1;
#X obj 73 619 +~;
#X obj 295 568 osc~;
#X obj 335 567 osc~;
#X obj 295 449 random 100;
#X obj 295 483 / 100;
#X obj 295 527 +;
#X obj 308 625 +~;
#X obj 415 420 * 2;
#X msg 295 416 seed 23;
#X obj 499 568 osc~;
#X obj 539 567 osc~;
#X obj 499 449 random 100;
#X obj 499 483 / 100;
#X obj 501 528 +;
#X obj 512 625 +~;
#X msg 499 416 seed 17;
#X obj 619 420 * 3;
#X obj 687 576 osc~;
#X obj 727 575 osc~;
#X obj 687 457 random 100;
#X obj 687 491 / 100;
#X obj 687 535 +;
#X obj 700 633 +~;
#X msg 687 429 seed 17;
#X obj 807 428 * 4;
#X obj 892 577 osc~;
#X obj 932 576 osc~;
#X obj 892 458 random 100;
#X obj 892 492 / 100;
#X obj 892 536 +;
#X obj 905 634 +~;
#X obj 1012 429 * 5;
#X msg 892 425 seed 76;
#X obj 603 757 +~;
#X obj 1076 580 osc~;
#X obj 1116 579 osc~;
#X obj 1076 461 random 100;
#X obj 1076 495 / 100;
#X obj 1076 539 +;
#X obj 1090 644 +~;
#X obj 1196 432 * 6;
#X msg 1076 428 seed 58;
#X obj 999 757 +~;
#X obj 388 809 +~;
#X obj 721 857 +~;
#X obj 695 249 f;
#X obj 145 341 bng 15 250 50 0 empty empty empty 17 7 0 10 -262144
-1 -1;
#X obj 393 346 bng 15 250 50 0 empty empty empty 17 7 0 10 -262144
-1 -1;
#X msg 695 192 0;
#X obj 565 329 bng 15 250 50 0 empty empty empty 17 7 0 10 -262144
-1 -1;
#X obj 719 384 bng 15 250 50 0 empty empty empty 17 7 0 10 -262144
-1 -1;
#X obj 937 349 bng 15 250 50 0 empty empty empty 17 7 0 10 -262144
-1 -1;
#X obj 1126 361 bng 15 250 50 0 empty empty empty 17 7 0 10 -262144
-1 -1;
#X obj 712 948 dac~;
#X obj 728 114 bng 15 250 50 0 empty empty empty 17 7 0 10 -262144
-1 -1;
#X obj 793 113 bng 15 250 50 0 empty empty empty 17 7 0 10 -262144
-1 -1;
#X obj 183 751 +~;
#X obj 289 680 *~;
#X obj 80 680 *~;
#X obj 693 690 *~;
#X obj 905 697 *~;
#X obj 1093 702 *~;
#X obj 510 686 *~;
#X msg 782 672 0.04;
#X msg 1144 678 0.07;
#X msg 590 667 0.01;
#X msg 974 665 0.02;
#X msg 140 663 1, f 4;
#X msg 370 665 1;
#X msg 728 200 50;
#X text 653 71 stop sound;
#X text 825 93 play sound;
#X connect 0 0 54 0;
#X connect 0 0 55 0;
#X connect 0 0 57 0;
#X connect 0 0 58 0;
#X connect 0 0 59 0;
#X connect 0 0 60 0;
#X connect 1 0 8 0;
#X connect 2 0 8 1;
#X connect 3 0 5 0;
#X connect 4 0 3 0;
#X connect 5 0 6 0;
#X connect 6 0 1 0;
#X connect 7 0 2 0;
#X connect 7 0 6 1;
#X connect 8 0 66 0;
#X connect 9 0 14 0;
#X connect 10 0 14 1;
#X connect 11 0 12 0;
#X connect 12 0 13 0;
#X connect 13 0 9 0;
#X connect 14 0 65 0;
#X connect 15 0 10 0;
#X connect 15 0 13 1;
#X connect 16 0 11 0;
#X connect 17 0 22 0;
#X connect 18 0 22 1;
#X connect 19 0 20 0;
#X connect 20 0 21 0;
#X connect 21 0 17 0;
#X connect 22 0 70 0;
#X connect 23 0 19 0;
#X connect 24 0 18 0;
#X connect 24 0 21 1;
#X connect 25 0 30 0;
#X connect 26 0 30 1;
#X connect 27 0 28 0;
#X connect 28 0 29 0;
#X connect 29 0 25 0;
#X connect 30 0 67 0;
#X connect 31 0 27 0;
#X connect 32 0 26 0;
#X connect 32 0 29 1;
#X connect 33 0 38 0;
#X connect 34 0 38 1;
#X connect 35 0 36 0;
#X connect 36 0 37 0;
#X connect 37 0 33 0;
#X connect 38 0 68 0;
#X connect 39 0 34 0;
#X connect 39 0 37 1;
#X connect 40 0 35 0;
#X connect 41 0 51 1;
#X connect 42 0 47 0;
#X connect 43 0 47 1;
#X connect 44 0 45 0;
#X connect 45 0 46 0;
#X connect 46 0 42 0;
#X connect 47 0 69 0;
#X connect 48 0 43 0;
#X connect 48 0 46 1;
#X connect 49 0 44 0;
#X connect 50 0 52 0;
#X connect 51 0 52 0;
#X connect 52 0 61 0;
#X connect 52 0 61 1;
#X connect 53 0 7 0;
#X connect 53 0 15 0;
#X connect 53 0 24 0;
#X connect 53 0 32 0;
#X connect 53 0 39 0;
#X connect 53 0 48 0;
#X connect 54 0 4 0;
#X connect 54 0 3 0;
#X connect 55 0 11 0;
#X connect 55 0 16 0;
#X connect 56 0 53 0;
#X connect 57 0 23 0;
#X connect 57 0 19 0;
#X connect 58 0 31 0;
#X connect 58 0 27 0;
#X connect 59 0 40 0;
#X connect 59 0 35 0;
#X connect 60 0 49 0;
#X connect 60 0 44 0;
#X connect 62 0 56 0;
#X connect 62 0 0 0;
#X connect 63 0 0 0;
#X connect 63 0 77 0;
#X connect 64 0 51 0;
#X connect 65 0 64 1;
#X connect 66 0 64 0;
#X connect 67 0 41 1;
#X connect 68 0 50 0;
#X connect 69 0 50 1;
#X connect 70 0 41 0;
#X connect 71 0 67 1;
#X connect 72 0 69 1;
#X connect 73 0 70 1;
#X connect 74 0 68 1;
#X connect 75 0 66 1;
#X connect 76 0 65 1;
#X connect 77 0 53 0;
