#N canvas 0 50 1920 997 10;
#X obj 465 255 noise~;
#X obj 448 502 dac~;
#X obj 507 304 lop~ 50;
#X obj 444 52 bng 15 250 50 0 empty empty empty 17 7 0 10 -262144 -1
-1;
#X obj 588 400 *~;
#X obj 413 303 lop~ 250;
#X obj 413 336 hip~ 50;
#X obj 345 406 *~;
#X obj 457 460 +~;
#X obj 528 359 *~;
#X obj 376 373 *~;
#X obj 671 158 ead~ 500 3000;
#X obj 444 11 r bombBang;
#X obj 569 237 random 20;
#X obj 569 259 - 10;
#X obj 599 280 + 120;
#X obj 291 114 ead~ 100 2000;
#X obj 368 239 random 20;
#X obj 367 261 -10;
#X obj 334 285 - 66;
#X msg 414 209 seed 12;
#X msg 478 210 seed 33;
#X obj 439 142 loadbang;
#X connect 0 0 2 0;
#X connect 0 0 5 0;
#X connect 2 0 9 0;
#X connect 3 0 11 0;
#X connect 3 0 16 0;
#X connect 3 0 13 0;
#X connect 3 0 17 0;
#X connect 4 0 8 1;
#X connect 5 0 6 0;
#X connect 6 0 10 1;
#X connect 7 0 8 0;
#X connect 8 0 1 0;
#X connect 8 0 1 1;
#X connect 9 0 4 0;
#X connect 10 0 7 1;
#X connect 11 0 4 1;
#X connect 12 0 3 0;
#X connect 13 0 14 0;
#X connect 14 0 15 0;
#X connect 15 0 9 1;
#X connect 16 0 7 0;
#X connect 17 0 18 0;
#X connect 18 0 19 0;
#X connect 19 0 10 0;
#X connect 20 0 17 0;
#X connect 21 0 13 0;
#X connect 22 0 21 0;
#X connect 22 0 20 0;
