#N canvas 4937 457 450 300 10;
#X obj 202 122 dac~;
#X obj 186 20 noise~;
#X obj 201 95 *~;
#X obj 250 69 *~ 10;
#X obj 137 50 hip~ 4000;
#X obj 249 46 lop~ 60;
#X connect 1 0 4 0;
#X connect 1 0 5 0;
#X connect 2 0 0 0;
#X connect 2 0 0 1;
#X connect 3 0 2 1;
#X connect 4 0 2 0;
#X connect 5 0 3 0;
