#N canvas 0 50 958 988 10;
#X obj 146 124 hip~ 15000;
#X obj 146 146 hip~ 15000;
#X obj 146 167 hip~ 15000;
#X obj 146 190 hip~ 15000;
#X obj 146 213 lop~ 20000;
#X obj 146 235 lop~ 20000;
#X obj 146 259 lop~ 20000;
#X obj 146 283 lop~ 20000;
#X obj 145 86 noise~;
#X obj 182 515 dac~;
#X obj 636 -27 r smokebang;
#X obj 190 429 *~;
#X obj 299 76 r smokeBang;
#X obj 308 126 bng 15 250 50 0 empty empty empty 17 7 0 10 -262144
-1 -1;
#X obj 273 364 *~;
#X obj 265 246 ead~ 3000 7000;
#X obj 382 248 ead~ 1500 7000;
#X connect 0 0 1 0;
#X connect 1 0 2 0;
#X connect 2 0 3 0;
#X connect 3 0 4 0;
#X connect 4 0 5 0;
#X connect 5 0 6 0;
#X connect 6 0 7 0;
#X connect 7 0 11 0;
#X connect 8 0 0 0;
#X connect 11 0 9 0;
#X connect 11 0 9 1;
#X connect 12 0 13 0;
#X connect 13 0 15 0;
#X connect 13 0 16 0;
#X connect 14 0 11 1;
#X connect 15 0 14 0;
#X connect 16 0 14 1;
