#N canvas -8 -8 1536 781 10;
#X obj 150 335 noise~;
#X obj 135 358 *~;
#X obj 126 490 dac~;
#X obj 11 401 bp~ 440 80;
#X obj 89 401 bp~ 440 80;
#X obj 166 401 bp~ 440 80;
#X obj 244 401 bp~ 440 80;
#X obj 83 236 unpack 1 2 3 4 5;
#X obj 134 294 t;
#X obj 129 86 bng 15 250 50 0 empty empty empty 17 7 0 10 -262144 -1
-1;
#X obj 134 316 ead~ 20 120;
#X obj 19 154 metro 50;
#X msg 19 127 0, f 2;
#X obj 125 454 *~ 4;
#X msg 82 182 1879 3133 2051 6640 1340;
#X obj 19 100 delay 250;
#X obj 124 46 r icicle;
#X connect 0 0 1 1;
#X connect 1 0 3 0;
#X connect 1 0 4 0;
#X connect 1 0 5 0;
#X connect 1 0 6 0;
#X connect 3 0 13 0;
#X connect 4 0 13 0;
#X connect 5 0 13 0;
#X connect 6 0 13 0;
#X connect 7 0 3 1;
#X connect 7 1 4 1;
#X connect 7 2 5 1;
#X connect 7 3 6 1;
#X connect 7 4 8 0;
#X connect 7 4 3 2;
#X connect 7 4 4 2;
#X connect 7 4 5 2;
#X connect 7 4 6 2;
#X connect 8 0 10 0;
#X connect 9 0 14 0;
#X connect 9 0 11 0;
#X connect 9 0 15 0;
#X connect 10 0 1 0;
#X connect 11 0 14 0;
#X connect 12 0 11 0;
#X connect 13 0 2 0;
#X connect 13 0 2 1;
#X connect 14 0 7 0;
#X connect 15 0 12 0;
#X connect 16 0 9 0;
