#N canvas 1012 213 539 782 10;
#X obj 165 127 readsf~;
#X obj 173 188 dac~;
#X msg 160 67 open jinglebells1.wav \, 1;
#X obj 291 121 bng 15 250 50 0 empty empty empty 17 7 0 10 -262144
-1 -1;
#X msg 189 97 0, f 2;
#X obj 246 152 metro 435;
#N canvas 1075 65 1920 997 tamborina 1;
#X obj 422 119 *~;
#X obj 423 208 dac~;
#X obj 435 63 noise~;
#X obj 365 91 ead~ 1 500;
#X obj 423 179 *~ 5;
#X obj 315 172 *~;
#X obj 311 274 dac~;
#X obj 328 116 noise~;
#X obj 258 144 ead~ 1 500;
#X obj 316 232 *~ 5;
#X obj 194 202 *~;
#X obj 186 297 dac~;
#X obj 210 147 noise~;
#X obj 137 174 ead~ 1 500;
#X obj 195 262 *~ 5;
#X obj 154 121 delay 1 60 msec;
#X obj 258 92 delay 1 120 msec;
#X obj 267 39 inlet;
#X text 142 15 tamborina Pd patch, f 19;
#X obj 210 172 bp~ 15000 1000;
#X obj 329 141 bp~ 15000 1000;
#X obj 436 90 bp~ 15000 1000;
#X connect 0 0 4 0;
#X connect 2 0 21 0;
#X connect 3 0 0 0;
#X connect 4 0 1 0;
#X connect 4 0 1 1;
#X connect 5 0 9 0;
#X connect 7 0 20 0;
#X connect 8 0 5 0;
#X connect 9 0 6 0;
#X connect 9 0 6 1;
#X connect 10 0 14 0;
#X connect 12 0 19 0;
#X connect 13 0 10 0;
#X connect 14 0 11 0;
#X connect 14 0 11 1;
#X connect 15 0 13 0;
#X connect 16 0 8 0;
#X connect 17 0 15 0;
#X connect 17 0 16 0;
#X connect 17 0 3 0;
#X connect 19 0 10 1;
#X connect 20 0 5 1;
#X connect 21 0 0 1;
#X restore 227 189 pd tamborina;
#X obj 251 87 loadbang;
#X connect 0 0 1 0;
#X connect 0 0 1 1;
#X connect 0 1 3 0;
#X connect 2 0 0 0;
#X connect 3 0 2 0;
#X connect 3 0 5 0;
#X connect 4 0 0 0;
#X connect 4 0 5 0;
#X connect 5 0 6 0;
#X connect 7 0 3 0;
