#N canvas -8 -8 1536 781 10;
#X obj 165 127 readsf~;
#X obj 173 188 dac~;
#X msg 160 67 open jinglebells1.wav \, 1;
#X obj 275 119 bng 15 250 50 0 empty empty empty 17 7 0 10 -262144
-1 -1;
#X msg 92 109 0;
#N canvas -8 -8 1536 781 bell 1;
#X obj 465 153 *~;
#X obj 466 242 dac~;
#X obj 505 102 noise~;
#X obj 408 125 ead~ 1 500;
#X obj 504 128 bp~ 15000 1000;
#X obj 466 213 *~ 5;
#X obj 314 225 *~;
#X obj 315 314 dac~;
#X obj 354 174 noise~;
#X obj 257 197 ead~ 1 500;
#X obj 353 200 bp~ 15000 1000;
#X obj 315 285 *~ 5;
#X obj 122 197 *~;
#X obj 123 286 dac~;
#X obj 162 146 noise~;
#X obj 65 169 ead~ 1 500;
#X obj 161 172 bp~ 15000 1000;
#X obj 123 257 *~ 5;
#X obj 82 116 delay 1 60 msec;
#X obj 257 144 delay 1 120 msec;
#X obj 267 39 inlet;
#X connect 0 0 5 0;
#X connect 2 0 4 0;
#X connect 3 0 0 0;
#X connect 4 0 0 1;
#X connect 5 0 1 0;
#X connect 5 0 1 1;
#X connect 6 0 11 0;
#X connect 8 0 10 0;
#X connect 9 0 6 0;
#X connect 10 0 6 1;
#X connect 11 0 7 0;
#X connect 11 0 7 1;
#X connect 12 0 17 0;
#X connect 14 0 16 0;
#X connect 15 0 12 0;
#X connect 16 0 12 1;
#X connect 17 0 13 0;
#X connect 17 0 13 1;
#X connect 18 0 15 0;
#X connect 19 0 9 0;
#X connect 20 0 18 0;
#X connect 20 0 19 0;
#X connect 20 0 3 0;
#X restore 331 207 pd bell;
#X obj 313 162 metro 435;
#X connect 0 0 1 0;
#X connect 0 0 1 1;
#X connect 0 1 3 0;
#X connect 2 0 0 0;
#X connect 3 0 2 0;
#X connect 3 0 6 0;
#X connect 4 0 0 0;
#X connect 4 0 6 0;
#X connect 6 0 5 0;
