#N canvas -8 -8 1920 997 10;
#X msg 333 317 bang, f 5;
#X obj 453 477 osc~;
#X obj 493 476 osc~;
#X obj 453 397 random 100;
#X obj 453 421 / 100;
#X obj 453 447 +;
#X obj 464 504 +~;
#X obj 518 429 * 4;
#X obj 528 393 f;
#X obj 391 349 bng 15 250 50 0 empty empty empty 17 7 0 10 -262144
-1 -1;
#X obj 415 682 dac~;
#X obj 613 516 bng 15 250 50 0 empty empty empty 17 7 0 10 -262144
-1 -1;
#X obj 517 235 bng 15 250 50 0 empty empty empty 17 7 0 10 -262144
-1 -1;
#X obj 448 532 *~;
#X text 635 511 stop sound;
#X text 543 230 play sound;
#X msg 453 373 seed 40;
#X obj 330 283 delay 100;
#X obj 447 558 *~;
#X msg 535 537 0;
#X msg 537 361 50;
#X msg 608 420 1, f 2;
#X obj 425 598 hip~ 150;
#X obj 422 622 hip~ 150;
#X obj 422 645 hip~ 150;
#X msg 403 453 0.5;
#X obj 493 177 r lowhealthBang;
#X connect 0 0 9 0;
#X connect 1 0 6 0;
#X connect 2 0 6 1;
#X connect 3 0 4 0;
#X connect 4 0 5 0;
#X connect 5 0 1 0;
#X connect 6 0 13 1;
#X connect 7 0 2 0;
#X connect 7 0 5 1;
#X connect 8 0 7 0;
#X connect 9 0 16 0;
#X connect 9 0 3 0;
#X connect 9 0 25 0;
#X connect 11 0 19 0;
#X connect 12 0 20 0;
#X connect 12 0 17 0;
#X connect 12 0 21 0;
#X connect 13 0 18 0;
#X connect 16 0 3 0;
#X connect 17 0 0 0;
#X connect 18 0 22 0;
#X connect 19 0 18 1;
#X connect 20 0 8 0;
#X connect 21 0 18 1;
#X connect 22 0 23 0;
#X connect 23 0 24 0;
#X connect 24 0 10 0;
#X connect 24 0 10 1;
#X connect 25 0 13 0;
#X connect 26 0 12 0;
