#N canvas -8 -8 1920 997 10;
#X text 11 46 metal;
#X text 65 12 Simple material formants;
#X obj 133 50 bng 15 250 50 0 empty empty empty 17 7 0 10 -262144 -1
-1;
#X obj 205 256 noise~;
#X obj 190 279 *~;
#X obj 172 401 dac~;
#X obj 66 322 bp~ 440 80;
#X obj 180 375 *~ 2;
#X obj 144 322 bp~ 440 80;
#X obj 221 322 bp~ 440 80;
#X obj 299 322 bp~ 440 80;
#X obj 138 157 unpack 1 2 3 4 5;
#X obj 189 215 t;
#X obj 189 237 ead~ 0 50;
#X obj 136 84 metro 100;
#X msg 138 132 2312 2466 3200 5314 3400;
#X floatatom 197 52 5 0 0 0 - - -, f 5;
#X connect 2 0 14 0;
#X connect 3 0 4 1;
#X connect 4 0 6 0;
#X connect 4 0 8 0;
#X connect 4 0 9 0;
#X connect 4 0 10 0;
#X connect 6 0 7 0;
#X connect 7 0 5 0;
#X connect 7 0 5 1;
#X connect 8 0 7 0;
#X connect 9 0 7 0;
#X connect 10 0 7 0;
#X connect 11 0 6 1;
#X connect 11 1 8 1;
#X connect 11 2 9 1;
#X connect 11 3 10 1;
#X connect 11 4 12 0;
#X connect 11 4 6 2;
#X connect 11 4 8 2;
#X connect 11 4 9 2;
#X connect 11 4 10 2;
#X connect 12 0 13 0;
#X connect 13 0 4 0;
#X connect 14 0 15 0;
#X connect 15 0 11 0;
#X connect 16 0 14 1;
