#N canvas 4075 109 1536 834 10;
#X obj 138 358 dac~;
#X obj 254 63 table silent;
#X obj 132 287 mtof;
#X obj 89 30 bng 15 250 50 0 empty empty empty 17 7 0 10 -262144 -1
-1;
#X obj 135 75 metro 450;
#X obj 131 113 f;
#X obj 172 113 + 1;
#X floatatom 131 258 5 0 0 0 - - -, f 5;
#X msg 47 77 -1;
#X msg 162 27 0;
#X floatatom 130 148 5 0 0 0 - - -, f 5;
#X obj 128 182 tabread silent;
#X msg 287 149 \; silent 0 67 67 69;
#X obj 136 318 osc~ 440;
#X obj 259 105 loadbang;
#X connect 2 0 13 0;
#X connect 3 0 4 0;
#X connect 3 0 8 0;
#X connect 4 0 5 0;
#X connect 5 0 6 0;
#X connect 5 0 10 0;
#X connect 6 0 5 1;
#X connect 7 0 2 0;
#X connect 8 0 5 0;
#X connect 9 0 4 0;
#X connect 10 0 11 0;
#X connect 11 0 7 0;
#X connect 13 0 0 0;
#X connect 13 0 0 1;
#X connect 14 0 12 0;
