#N canvas 4160 275 722 425 10;
#X obj 162 323 dac~;
#X floatatom 163 174 5 0 0 0 - - -, f 5;
#X floatatom 163 223 5 0 0 0 - - -, f 5;
#X obj 163 270 osc~ 100;
#X obj 163 245 * 1000;
#X obj 128 100 bng 15 250 50 0 empty empty empty 17 7 0 10 -262144
-1 -1;
#X obj 157 144 f;
#X obj 202 144 + 1;
#X msg 218 92 0;
#X obj 107 140 -1;
#X obj 157 117 metro 450;
#X obj 163 198 tabread silent;
#X msg 269 193 \; silent 0 0.196 0.196 0.22 0.196 0.196 0.165 0.165
0.165 0.196 0.196 0.22 0.196 0.196 0.165 0.165 0.165 0.294 0.294 0.294
0.294 0.247 0.247 0.247 0.262 0.262 0.262 0.196 0.196 0.22 0.22 0.22
0.262 0.262 0.247 0.22 0.22 0.196 0.196 0.22 0.196 0.196 0.165 0.165
0.165 0.22 0.22 0.22 0.262 0.262 0.247 0.22 0.22 0.196 0.196 0.22 0.196
0.196 0.165 0.165 0.165 0.294 0.294 0.294 0.349 0.349 0.349 0.294 0.247
0.262 0.262 0.262 0.33 0.33 0.33 0.262 0.262 0.196 0.165 0.196 0.196
0.175 0.147 0.131 0.131 0.131;
#X obj 162 295 lop~ 100;
#X obj 266 96 table silent;
#X obj 128 75 r silentnight;
#X obj 271 148 loadbang;
#X connect 1 0 11 0;
#X connect 2 0 4 0;
#X connect 3 0 13 0;
#X connect 4 0 3 0;
#X connect 5 0 9 0;
#X connect 5 0 10 0;
#X connect 6 0 7 0;
#X connect 6 0 1 0;
#X connect 7 0 6 1;
#X connect 8 0 10 0;
#X connect 9 0 6 0;
#X connect 10 0 6 0;
#X connect 11 0 2 0;
#X connect 13 0 0 0;
#X connect 13 0 0 1;
#X connect 15 0 5 0;
#X connect 16 0 12 0;
