#N canvas -8 -8 1920 997 10;
#X obj 82 353 hip~ 5;
#X obj 81 378 dac~;
#X obj 81 309 *~;
#X msg 45 213 symbol snow_crunch_fast.wav;
#X obj 345 236 noise~;
#X obj 400 252 bp~ 50 2;
#X obj 422 210 random 50;
#X obj 422 230 + 50;
#X obj 81 331 +~;
#X obj 222 315 *~;
#X msg 428 186 seed 13;
#X obj 222 293 ead~ 0 500;
#N canvas 0 72 1920 996 readFile 0;
#X obj 149 86 soundfiler;
#X floatatom 149 146 5 0 0 0 - - -, f 5;
#X obj 149 185 phasor~;
#X obj 149 206 *~;
#X obj 149 164 *;
#X obj 191 129 t b f;
#X obj 149 107 expr 44100 / $f1;
#X obj 149 38 inlet;
#X obj 149 343 outlet~;
#X text 312 124 playback speed;
#X obj 302 141 random 100;
#X obj 302 163 / 100;
#X obj 302 183 + 0.5;
#X obj 303 67 inlet;
#X obj 360 75 inlet;
#X msg 318 108 seed \$1;
#X text 198 29 inlet1: filename;
#X text 422 73 inlet4: seed number;
#X text 324 40 inlet3: bang on random generator;
#X msg 149 65 read -resize \$1 array2;
#X obj 152 247 tabread4~ array2;
#X text 222 253 inlet2: volume;
#X connect 0 0 3 1;
#X connect 0 0 6 0;
#X connect 1 0 4 0;
#X connect 2 0 3 0;
#X connect 3 0 20 0;
#X connect 4 0 2 0;
#X connect 5 0 1 0;
#X connect 5 1 4 1;
#X connect 6 0 1 0;
#X connect 7 0 19 0;
#X connect 10 0 11 0;
#X connect 11 0 12 0;
#X connect 12 0 5 0;
#X connect 13 0 10 0;
#X connect 13 0 15 0;
#X connect 14 0 15 0;
#X connect 15 0 10 0;
#X connect 19 0 0 0;
#X connect 20 0 8 0;
#X restore 550 247 pd readFile;
#X obj 507 339 hip~ 5;
#X obj 506 364 dac~;
#X obj 522 295 *~;
#X obj 506 317 +~;
#X msg 650 225 100;
#X obj 400 301 *~;
#X obj 416 277 ead~ 0 500;
#N canvas 0 50 1920 997 readFile 0;
#X obj 149 86 soundfiler;
#X floatatom 149 146 5 0 0 0 - - -, f 5;
#X obj 149 185 phasor~;
#X obj 149 206 *~;
#X obj 149 164 *;
#X obj 191 129 t b f;
#X obj 149 107 expr 44100 / $f1;
#X obj 154 253 tabread4~ array1;
#X obj 149 38 inlet;
#X msg 149 65 read -resize \$1 array1;
#X obj 149 343 outlet~;
#X text 312 124 playback speed;
#X obj 302 141 random 100;
#X obj 302 163 / 100;
#X obj 302 183 + 0.5;
#X obj 303 67 inlet;
#X obj 360 75 inlet;
#X msg 318 108 seed \$1;
#X text 198 29 inlet1: filename;
#X text 422 73 inlet4: seed number;
#X text 324 40 inlet3: bang on random generator;
#X connect 0 0 3 1;
#X connect 0 0 6 0;
#X connect 1 0 4 0;
#X connect 2 0 3 0;
#X connect 3 0 7 0;
#X connect 4 0 2 0;
#X connect 5 0 1 0;
#X connect 5 1 4 1;
#X connect 6 0 1 0;
#X connect 7 0 10 0;
#X connect 8 0 9 0;
#X connect 9 0 0 0;
#X connect 12 0 13 0;
#X connect 13 0 14 0;
#X connect 14 0 5 0;
#X connect 15 0 12 0;
#X connect 15 0 17 0;
#X connect 16 0 17 0;
#X connect 17 0 12 0;
#X restore 83 254 pd readFile;
#X msg 161 233 34;
#X obj 428 165 loadbang;
#X obj 114 188 loadbang;
#X obj 82 279 *~;
#X obj 204 262 line~;
#X msg 204 241 \$1 20;
#X obj 536 269 *~;
#X obj 499 230 line~;
#X msg 499 209 \$1 20;
#X obj 581 181 loadbang;
#X obj 308 299 bp~ 50 2;
#X obj 268 251 random 50;
#X obj 268 271 + 50;
#X obj 268 208 loadbang;
#X msg 268 229 seed 48;
#X obj 346 109 bng 15 250 50 0 empty empty empty 17 7 0 10 -262144
-1 -1;
#X obj 499 165 random 10;
#X obj 499 188 / 10;
#X msg 512 142 seed 71;
#X obj 512 122 loadbang;
#X obj 262 138 random 10;
#X obj 262 157 / 10;
#X obj 232 94 loadbang;
#X msg 232 115 seed 55;
#X text 45 144 load a crunch with higher tempo;
#X text 594 141 load a crunch with slower tempo;
#X msg 550 205 symbol snow_crunch_slower.wav;
#X obj 346 84 r snowCrunch;
#X connect 0 0 1 0;
#X connect 0 0 1 1;
#X connect 2 0 8 0;
#X connect 3 0 20 0;
#X connect 4 0 5 0;
#X connect 4 0 31 0;
#X connect 5 0 18 0;
#X connect 6 0 7 0;
#X connect 7 0 5 1;
#X connect 8 0 0 0;
#X connect 9 0 8 1;
#X connect 10 0 6 0;
#X connect 11 0 2 1;
#X connect 11 0 9 0;
#X connect 12 0 27 1;
#X connect 13 0 14 0;
#X connect 13 0 14 1;
#X connect 15 0 16 1;
#X connect 16 0 13 0;
#X connect 17 0 12 2;
#X connect 18 0 16 0;
#X connect 19 0 15 0;
#X connect 19 0 18 1;
#X connect 20 0 24 0;
#X connect 21 0 20 2;
#X connect 22 0 10 0;
#X connect 23 0 3 0;
#X connect 23 0 20 1;
#X connect 23 0 21 0;
#X connect 24 0 2 0;
#X connect 25 0 24 1;
#X connect 26 0 25 0;
#X connect 27 0 15 1;
#X connect 28 0 27 0;
#X connect 29 0 28 0;
#X connect 30 0 47 0;
#X connect 30 0 12 1;
#X connect 30 0 17 0;
#X connect 31 0 9 1;
#X connect 32 0 33 0;
#X connect 33 0 31 1;
#X connect 34 0 35 0;
#X connect 35 0 32 0;
#X connect 36 0 11 0;
#X connect 36 0 19 0;
#X connect 36 0 37 0;
#X connect 36 0 41 0;
#X connect 36 0 32 0;
#X connect 36 0 6 0;
#X connect 37 0 38 0;
#X connect 38 0 29 0;
#X connect 39 0 37 0;
#X connect 40 0 39 0;
#X connect 41 0 42 0;
#X connect 42 0 26 0;
#X connect 43 0 44 0;
#X connect 44 0 41 0;
#X connect 47 0 12 0;
#X connect 48 0 36 0;
