#N canvas 1042 76 632 621 10;
#X obj 123 74 noise~;
#X obj 168 436 *~;
#X obj 177 553 dac~;
#X obj 208 358 *~;
#X obj 217 321 line~;
#X msg 217 223 bang;
#X obj 141 131 env~;
#X obj 187 468 *~;
#X obj 310 181 bng 15 250 50 0 empty empty empty 17 7 0 10 -262144
-1 -1;
#X obj 217 198 moses 55;
#X msg 217 296 1 \, 0 \$1;
#X obj 187 518 *~ 0.5;
#X obj 172 163 moses 45;
#X obj 141 104 lop~ 1;
#X obj 120 346 bp~ 8000 10;
#X obj 217 248 random 20;
#X obj 45 346 *~ 0.6;
#X obj 234 407 ead~ 500 500;
#X obj 45 299 lop~ 5000;
#X obj 141 288 + 2000;
#X obj 139 266 * 1000;
#X obj 105 394 +~;
#X connect 0 0 13 0;
#X connect 0 0 14 0;
#X connect 0 0 18 0;
#X connect 1 0 7 0;
#X connect 3 0 1 1;
#X connect 4 0 3 0;
#X connect 4 0 3 1;
#X connect 5 0 15 0;
#X connect 6 0 12 0;
#X connect 7 0 11 0;
#X connect 8 0 0 0;
#X connect 8 0 17 0;
#X connect 9 0 5 0;
#X connect 10 0 4 0;
#X connect 11 0 2 0;
#X connect 11 0 2 1;
#X connect 12 1 9 0;
#X connect 13 0 6 0;
#X connect 14 0 21 1;
#X connect 15 0 10 0;
#X connect 15 0 20 0;
#X connect 16 0 21 0;
#X connect 17 0 7 1;
#X connect 18 0 16 0;
#X connect 19 0 14 1;
#X connect 20 0 19 0;
#X connect 21 0 1 0;
