#N canvas -8 -8 1536 781 10;
#X obj 265 348 osc~;
#X obj 265 422 *~;
#X obj 232 319 +~ 2000;
#X obj 303 347 *~;
#X obj 303 372 *~;
#X obj 265 526 *~ 0.01;
#X obj 266 548 lop~ 10000;
#X obj 277 240 bp~ 2.064 0.002;
#X obj 304 397 *~;
#X obj 264 456 *~ 0.3;
#X obj 278 263 *~ 3.2;
#X obj 265 481 hip~ 500;
#X obj 266 504 hip~ 500;
#X obj 231 295 *~ 3000;
#X obj 265 571 *~ 0.02;
#X obj 151 348 osc~;
#X obj 281 169 noise~;
#X obj 151 422 *~;
#X obj 189 347 *~;
#X obj 189 372 *~;
#X obj 151 526 *~ 0.01;
#X obj 152 548 lop~ 10000;
#X obj 163 240 bp~ 2.064 0.002;
#X obj 190 397 *~;
#X obj 150 456 *~ 0.3;
#X obj 164 263 *~ 3.2;
#X obj 151 481 hip~ 500;
#X obj 152 504 hip~ 500;
#X obj 117 295 *~ 344;
#X obj 118 319 +~ 3000;
#X obj 151 571 *~ 0.01;
#X obj 271 619 lop~ 12000;
#X obj 271 644 *~;
#X obj 271 669 *~;
#X obj 270 704 dac~;
#X obj 387 240 bp~, f 10;
#X obj 387 270 bp~, f 10;
#X obj 397 652 *~ 0.2;
#X floatatom 534 195 5 0 0 0 - - -, f 5;
#X obj 517 240 bp~, f 10;
#X obj 517 270 bp~, f 10;
#X floatatom 673 206 5 0 0 0 - - -, f 5;
#X obj 657 240 bp~, f 10;
#X obj 657 270 bp~, f 10;
#X obj 326 48 bng 15 250 50 0 empty empty empty 17 7 0 10 -262144 -1
-1;
#X obj 368 112 vline~;
#X obj 368 155 snapshot~;
#X floatatom 405 180 5 0 0 0 - - -, f 5;
#X obj 368 134 *~ 1000;
#X obj 326 124 metro;
#X obj 490 42 bng 15 250 50 0 empty empty empty 17 7 0 10 -262144 -1
-1;
#X obj 528 109 vline~;
#X obj 534 172 snapshot~;
#X obj 529 134 *~ 1000;
#X obj 490 120 metro;
#X obj 490 61 metro 6000;
#X obj 659 47 bng 15 250 50 0 empty empty empty 17 7 0 10 -262144 -1
-1;
#X obj 699 115 vline~;
#X obj 705 178 snapshot~;
#X obj 700 140 *~ 1000;
#X obj 659 127 metro;
#X msg 507 83 0.3 3000 \, 1.3 3000 1500;
#X obj 326 69 metro 12000;
#X msg 343 93 0.5 8000 \, 2 8000 8000;
#X obj 468 16 r snow_wind;
#X obj 659 66 metro 8000;
#X msg 677 89 0.6 4000 \, 1.7 4000 4000;
#X obj 609 165 loadbang;
#X obj 459 161 loadbang;
#X msg 461 190 4;
#X msg 591 199 6;
#X msg 731 221 8;
#X obj 750 201 loadbang;
#X msg 361 643 0;
#X obj 360 619 loadbang;
#X obj 491 618 r snow_windStop;
#X msg 319 661 2;
#X connect 0 0 1 0;
#X connect 1 0 9 0;
#X connect 2 0 0 0;
#X connect 3 0 4 0;
#X connect 3 0 4 1;
#X connect 4 0 8 0;
#X connect 4 0 8 1;
#X connect 5 0 6 0;
#X connect 6 0 14 0;
#X connect 7 0 10 0;
#X connect 8 0 1 1;
#X connect 9 0 11 0;
#X connect 10 0 3 0;
#X connect 10 0 3 1;
#X connect 10 0 13 0;
#X connect 11 0 12 0;
#X connect 12 0 5 0;
#X connect 13 0 2 0;
#X connect 14 0 31 0;
#X connect 15 0 17 0;
#X connect 16 0 22 0;
#X connect 16 0 7 0;
#X connect 16 0 35 0;
#X connect 16 0 39 0;
#X connect 16 0 42 0;
#X connect 17 0 24 0;
#X connect 18 0 19 0;
#X connect 18 0 19 1;
#X connect 19 0 23 0;
#X connect 19 0 23 1;
#X connect 20 0 21 0;
#X connect 21 0 30 0;
#X connect 22 0 25 0;
#X connect 23 0 17 1;
#X connect 24 0 26 0;
#X connect 25 0 18 0;
#X connect 25 0 18 1;
#X connect 25 0 28 0;
#X connect 26 0 27 0;
#X connect 27 0 20 0;
#X connect 28 0 29 0;
#X connect 29 0 15 0;
#X connect 30 0 31 0;
#X connect 31 0 32 0;
#X connect 32 0 33 0;
#X connect 33 0 34 0;
#X connect 33 0 34 1;
#X connect 35 0 36 0;
#X connect 36 0 37 0;
#X connect 37 0 34 0;
#X connect 37 0 34 1;
#X connect 38 0 39 1;
#X connect 38 0 40 1;
#X connect 39 0 40 0;
#X connect 40 0 37 0;
#X connect 41 0 42 1;
#X connect 41 0 43 1;
#X connect 42 0 43 0;
#X connect 43 0 37 0;
#X connect 44 0 62 0;
#X connect 45 0 48 0;
#X connect 46 0 47 0;
#X connect 47 0 35 1;
#X connect 47 0 36 1;
#X connect 48 0 46 0;
#X connect 49 0 46 0;
#X connect 50 0 55 0;
#X connect 51 0 53 0;
#X connect 52 0 38 0;
#X connect 53 0 52 0;
#X connect 54 0 52 0;
#X connect 55 0 54 0;
#X connect 55 0 61 0;
#X connect 56 0 65 0;
#X connect 57 0 59 0;
#X connect 58 0 41 0;
#X connect 59 0 58 0;
#X connect 60 0 58 0;
#X connect 61 0 51 0;
#X connect 62 0 49 0;
#X connect 62 0 63 0;
#X connect 63 0 45 0;
#X connect 64 0 44 0;
#X connect 64 0 50 0;
#X connect 64 0 56 0;
#X connect 64 0 76 0;
#X connect 65 0 60 0;
#X connect 65 0 66 0;
#X connect 66 0 57 0;
#X connect 67 0 70 0;
#X connect 68 0 69 0;
#X connect 69 0 35 2;
#X connect 69 0 36 2;
#X connect 70 0 40 2;
#X connect 70 0 39 2;
#X connect 71 0 42 2;
#X connect 72 0 71 0;
#X connect 73 0 33 1;
#X connect 74 0 73 0;
#X connect 75 0 73 0;
#X connect 76 0 32 1;
#X connect 76 0 33 1;
